<?xml version="1.0" encoding="utf-8"?>
<!-- Generator: Adobe Illustrator 27.5.0, SVG Export Plug-In . SVG Version: 6.00 Build 0)  -->
<svg version="1.1" id="Layer_1" xmlns="http://www.w3.org/2000/svg" xmlns:xlink="http://www.w3.org/1999/xlink" x="0px" y="0px"
	 viewBox="0 0 5000 2916" style="enable-background:new 0 0 5000 2916;" xml:space="preserve">
<g>
	<rect style="fill-rule:evenodd;clip-rule:evenodd;" width="5000" height="2916"/>
	<path style="fill:#FFFFFF;" d="M190.074,2700.318h17.833c3.067,0,5.216-0.117,6.466-0.349c2.167-0.384,4.001-1.034,5.468-1.95
		c1.465-0.917,2.665-2.25,3.616-4.001c0.949-1.75,1.416-3.766,1.416-6.049c0-2.684-0.682-5.001-2.067-6.984
		c-1.367-1.983-3.266-3.366-5.7-4.167c-2.416-0.8-5.916-1.2-10.465-1.2h-16.568V2700.318z M190.074,2667.218h15.484
		c4.199,0,7.216-0.283,9.034-0.833c2.417-0.717,4.234-1.917,5.45-3.584c1.217-1.667,1.833-3.75,1.833-6.267
		c0-2.383-0.568-4.483-1.717-6.283c-1.134-1.815-2.767-3.065-4.883-3.733c-2.117-0.666-5.75-1-10.883-1h-14.317V2667.218z
		 M180.575,2708.718v-71.601h26.866c5.467,0,9.85,0.716,13.167,2.167c3.3,1.451,5.883,3.683,7.749,6.701
		c1.884,3,2.817,6.15,2.817,9.45c0,3.049-0.833,5.933-2.483,8.633c-1.65,2.699-4.15,4.883-7.499,6.549
		c4.333,1.266,7.667,3.434,9.982,6.5c2.335,3.051,3.501,6.667,3.501,10.833c0,3.367-0.717,6.484-2.135,9.367
		c-1.417,2.883-3.166,5.1-5.25,6.666c-2.083,1.551-4.699,2.734-7.833,3.534c-3.149,0.799-7,1.199-11.566,1.199H180.575z"/>
	<path style="fill:#FFFFFF;" d="M282.691,2679.319h24.401l-7.467-19.85c-2.25-6.035-3.95-11.017-5.133-14.95
		c-0.983,4.667-2.301,9.249-3.95,13.783L282.691,2679.319z M262.092,2708.718l27.467-71.601h10.417l29.149,71.601h-10.783
		l-8.283-21.7h-30.15l-7.767,21.7H262.092z"/>
	<path style="fill:#FFFFFF;" d="M409.909,2683.601l9.501,2.4c-1.983,7.784-5.551,13.701-10.7,17.783
		c-5.15,4.084-11.451,6.134-18.901,6.134c-7.699,0-13.966-1.566-18.799-4.717c-4.834-3.133-8.501-7.685-11.016-13.633
		c-2.517-5.967-3.784-12.351-3.784-19.183c0-7.451,1.417-13.951,4.267-19.5c2.85-5.551,6.9-9.768,12.15-12.652
		c5.249-2.882,11.033-4.316,17.333-4.316c7.166,0,13.183,1.818,18.05,5.468c4.883,3.649,8.284,8.766,10.201,15.366l-9.3,2.199
		c-1.65-5.2-4.067-9-7.217-11.367c-3.15-2.383-7.117-3.567-11.9-3.567c-5.483,0-10.083,1.318-13.766,3.951
		c-3.684,2.633-6.283,6.183-7.767,10.618c-1.5,4.448-2.25,9.033-2.25,13.749c0,6.083,0.883,11.4,2.649,15.934
		c1.767,4.549,4.518,7.934,8.251,10.184c3.733,2.25,7.767,3.365,12.117,3.365c5.301,0,9.766-1.533,13.433-4.584
		C406.125,2694.168,408.609,2689.635,409.909,2683.601"/>
	<polygon style="fill:#FFFFFF;" points="458.509,2708.718 458.509,2637.118 468.009,2637.118 468.009,2672.618 503.576,2637.118 
		516.41,2637.118 486.376,2666.151 517.71,2708.718 505.209,2708.718 479.726,2672.584 468.009,2683.919 468.009,2708.718 	"/>
	<path style="fill:#FFFFFF;" d="M586.893,2680.618v-8.4h30.3v26.534c-4.65,3.699-9.449,6.499-14.4,8.366
		c-4.951,1.867-10.034,2.8-15.234,2.8c-7.034,0-13.417-1.5-19.167-4.517c-5.734-2.999-10.083-7.366-12.999-13.05
		c-2.934-5.699-4.401-12.067-4.401-19.083c0-6.967,1.451-13.466,4.367-19.517c2.917-6.033,7.101-10.516,12.567-13.432
		c5.467-2.935,11.767-4.401,18.9-4.401c5.167,0,9.851,0.834,14.034,2.517c4.184,1.683,7.467,4.016,9.835,7
		c2.381,3.001,4.182,6.917,5.415,11.733l-8.55,2.334c-1.084-3.635-2.417-6.501-4-8.601c-1.6-2.084-3.867-3.751-6.834-5
		c-2.949-1.249-6.232-1.884-9.85-1.884c-4.316,0-8.049,0.667-11.216,1.984c-3.15,1.316-5.684,3.05-7.634,5.215
		c-1.934,2.151-3.434,4.518-4.499,7.085c-1.817,4.449-2.734,9.249-2.734,14.433c0,6.4,1.099,11.75,3.283,16.066
		c2.199,4.3,5.4,7.5,9.583,9.583c4.199,2.084,8.649,3.135,13.367,3.135c4.099,0,8.1-0.8,12-2.385c3.9-1.6,6.849-3.283,8.866-5.1
		v-13.416H586.893z"/>
	<path style="fill:#FFFFFF;" d="M668.66,2668.717h20.333c4.333,0,7.699-0.449,10.133-1.35c2.434-0.883,4.284-2.316,5.533-4.299
		c1.267-1.967,1.9-4.101,1.9-6.417c0-3.384-1.216-6.184-3.667-8.367c-2.449-2.184-6.316-3.267-11.599-3.267H668.66V2668.717z
		 M659.159,2708.718v-71.601h31.733c6.384,0,11.234,0.65,14.551,1.933c3.318,1.284,5.967,3.551,7.949,6.801
		c1.984,3.249,2.967,6.849,2.967,10.783c0,5.083-1.65,9.366-4.934,12.849c-3.283,3.484-8.349,5.683-15.216,6.635
		c2.517,1.199,4.416,2.4,5.716,3.565c2.766,2.534,5.383,5.717,7.833,9.534l12.383,19.5H710.31l-9.466-14.9
		c-2.751-4.317-5.034-7.6-6.817-9.883c-1.801-2.285-3.4-3.867-4.817-4.784c-1.4-0.899-2.85-1.533-4.317-1.9
		c-1.067-0.216-2.815-0.333-5.266-0.333H668.66v31.8H659.159z"/>
	<path style="fill:#FFFFFF;" d="M765.859,2674.035c0,8.616,2.318,15.399,6.952,20.349c4.633,4.95,10.449,7.434,17.449,7.434
		c7.133,0,12.983-2.5,17.6-7.5c4.6-4.999,6.9-12.1,6.9-21.299c0-5.817-0.984-10.9-2.951-15.235
		c-1.966-4.333-4.849-7.699-8.633-10.083c-3.8-2.383-8.049-3.584-12.767-3.584c-6.7,0-12.466,2.3-17.299,6.9
		C768.277,2655.618,765.859,2663.285,765.859,2674.035 M756.06,2673.868c0-11.867,3.2-21.167,9.583-27.883
		c6.385-6.717,14.616-10.068,24.717-10.068c6.617,0,12.568,1.584,17.884,4.734c5.3,3.15,9.349,7.549,12.133,13.199
		c2.784,5.634,4.183,12.033,4.183,19.184c0,7.249-1.467,13.75-4.399,19.466c-2.934,5.734-7.085,10.067-12.45,13.001
		c-5.384,2.949-11.185,4.416-17.401,4.416c-6.75,0-12.767-1.633-18.083-4.884c-5.301-3.249-9.333-7.683-12.067-13.315
		C757.427,2686.101,756.06,2680.151,756.06,2673.868z"/>
	<path style="fill:#FFFFFF;" d="M911.426,2637.118h9.501v41.35c0,7.201-0.817,12.917-2.435,17.152
		c-1.633,4.216-4.565,7.666-8.799,10.316c-4.251,2.65-9.801,3.984-16.701,3.984c-6.682,0-12.166-1.15-16.416-3.467
		c-4.267-2.318-7.301-5.65-9.117-10.034c-1.817-4.382-2.733-10.366-2.733-17.95v-41.35h9.499v41.333
		c0,6.218,0.584,10.817,1.734,13.751c1.149,2.95,3.115,5.233,5.932,6.816c2.801,1.6,6.234,2.399,10.284,2.399
		c6.934,0,11.883-1.583,14.833-4.733c2.949-3.166,4.416-9.234,4.416-18.234V2637.118z"/>
	<polygon style="fill:#FFFFFF;" points="964.428,2708.718 964.428,2637.118 974.161,2637.118 1011.727,2693.317 1011.727,2637.118 
		1020.828,2637.118 1020.828,2708.718 1011.095,2708.718 973.527,2652.518 973.527,2708.718 	"/>
	<path style="fill:#FFFFFF;" d="M1074.029,2700.318h15.266c4.717,0,8.416-0.433,11.1-1.316c2.682-0.884,4.817-2.117,6.416-3.717
		c2.234-2.249,3.984-5.283,5.234-9.083c1.25-3.801,1.884-8.399,1.884-13.816c0-7.5-1.233-13.267-3.685-17.301
		c-2.449-4.033-5.433-6.734-8.948-8.1c-2.534-0.983-6.619-1.467-12.251-1.467h-15.016V2700.318z M1064.527,2708.718v-71.601h24.668
		c5.566,0,9.816,0.335,12.749,1.016c4.1,0.952,7.6,2.667,10.5,5.133c3.783,3.202,6.6,7.268,8.467,12.235
		c1.884,4.966,2.816,10.649,2.816,17.033c0,5.433-0.633,10.25-1.899,14.449c-1.267,4.2-2.9,7.683-4.883,10.434
		c-2,2.75-4.167,4.916-6.534,6.484c-2.35,1.582-5.199,2.783-8.534,3.6c-3.35,0.816-7.182,1.217-11.516,1.217H1064.527z"/>
	<path style="fill:#FFFFFF;" d="M189.972,2600.358h9.221c2.849,0,5.084-0.261,6.705-0.796c1.62-0.533,2.91-1.279,3.875-2.245
		c1.35-1.359,2.407-3.191,3.162-5.486c0.756-2.296,1.137-5.073,1.137-8.346c0-4.53-0.745-8.014-2.225-10.45
		c-1.479-2.437-3.281-4.067-5.406-4.893c-1.53-0.594-3.996-0.887-7.4-0.887h-9.07V2600.358z M184.233,2605.432v-43.25h14.9
		c3.363,0,5.93,0.202,7.702,0.614c2.477,0.575,4.592,1.61,6.343,3.101c2.286,1.933,3.986,4.39,5.114,7.39
		c1.137,2.999,1.702,6.433,1.702,10.289c0,3.281-0.382,6.191-1.147,8.728c-0.766,2.537-1.752,4.641-2.951,6.303
		c-1.207,1.661-2.516,2.969-3.947,3.917c-1.419,0.956-3.14,1.68-5.154,2.174c-2.024,0.494-4.339,0.735-6.957,0.735H184.233z"/>
	<polygon style="fill:#FFFFFF;" points="244.759,2605.432 244.759,2562.182 275.988,2562.182 275.988,2567.256 250.497,2567.256 
		250.497,2580.546 274.358,2580.546 274.358,2585.62 250.497,2585.62 250.497,2600.358 277.015,2600.358 277.015,2605.432 	"/>
	<path style="fill:#FFFFFF;" d="M299.838,2591.539l5.376-0.484c0.251,2.175,0.845,3.957,1.782,5.356
		c0.936,1.39,2.385,2.516,4.349,3.383c1.962,0.855,4.178,1.289,6.634,1.289c2.185,0,4.108-0.323,5.779-0.977
		c1.671-0.654,2.91-1.551,3.725-2.688c0.816-1.137,1.228-2.376,1.228-3.704c0-1.349-0.392-2.528-1.177-3.545
		c-0.786-1.006-2.085-1.853-3.897-2.547c-1.158-0.443-3.725-1.147-7.702-2.103c-3.976-0.957-6.754-1.853-8.345-2.699
		c-2.065-1.088-3.595-2.437-4.601-4.036c-1.017-1.601-1.521-3.403-1.521-5.387c0-2.194,0.625-4.238,1.862-6.13
		c1.239-1.902,3.041-3.342,5.427-4.329c2.376-0.987,5.024-1.48,7.933-1.48c3.202,0,6.031,0.513,8.477,1.551
		c2.447,1.026,4.329,2.546,5.648,4.56c1.319,2.004,2.023,4.279,2.125,6.816l-5.497,0.422c-0.292-2.728-1.289-4.792-2.99-6.181
		c-1.701-1.4-4.219-2.095-7.541-2.095c-3.463,0-5.991,0.635-7.57,1.903c-1.581,1.268-2.377,2.799-2.377,4.591
		c0,1.551,0.564,2.829,1.681,3.836c1.107,0.997,3.977,2.033,8.628,3.081c4.652,1.057,7.843,1.973,9.575,2.758
		c2.506,1.159,4.369,2.618,5.566,4.401c1.199,1.771,1.793,3.815,1.793,6.13c0,2.306-0.655,4.46-1.974,6.493
		c-1.318,2.033-3.202,3.615-5.667,4.742c-2.467,1.128-5.236,1.691-8.326,1.691c-3.906,0-7.178-0.573-9.815-1.711
		c-2.65-1.137-4.712-2.849-6.212-5.145C300.704,2597.016,299.919,2594.428,299.838,2591.539"/>
	<rect x="359.75" y="2562.182" style="fill:#FFFFFF;" width="5.737" height="43.25"/>
	<path style="fill:#FFFFFF;" d="M412.583,2588.459v-5.073h18.303v16.027c-2.809,2.234-5.709,3.926-8.698,5.053
		c-2.99,1.128-6.061,1.691-9.202,1.691c-4.249,0-8.104-0.905-11.578-2.728c-3.463-1.812-6.091-4.449-7.853-7.882
		c-1.772-3.443-2.658-7.289-2.658-11.526c0-4.209,0.876-8.135,2.637-11.791c1.763-3.645,4.29-6.352,7.592-8.113
		c3.302-1.772,7.108-2.659,11.416-2.659c3.121,0,5.951,0.503,8.477,1.521c2.528,1.016,4.511,2.427,5.941,4.229
		c1.439,1.812,2.526,4.177,3.272,7.087l-5.164,1.41c-0.655-2.196-1.461-3.927-2.417-5.196c-0.966-1.258-2.336-2.266-4.128-3.019
		c-1.781-0.755-3.765-1.138-5.95-1.138c-2.607,0-4.863,0.402-6.775,1.198c-1.903,0.795-3.434,1.842-4.611,3.151
		c-1.168,1.299-2.074,2.729-2.719,4.278c-1.098,2.688-1.651,5.588-1.651,8.719c0,3.866,0.665,7.097,1.984,9.704
		c1.328,2.598,3.261,4.53,5.789,5.789c2.538,1.259,5.225,1.893,8.074,1.893c2.477,0,4.893-0.483,7.249-1.44
		c2.356-0.967,4.137-1.983,5.356-3.081v-8.104H412.583z"/>
	<polygon style="fill:#FFFFFF;" points="456.055,2605.432 456.055,2562.182 461.934,2562.182 484.626,2596.13 484.626,2562.182 
		490.124,2562.182 490.124,2605.432 484.244,2605.432 461.552,2571.485 461.552,2605.432 	"/>
	<g>
		<defs>
			<path id="SVGID_1_" d="M2500,1427.571c1199.833,0,2172.488,6.811,2172.488,15.214s-972.656,15.214-2172.488,15.214
				s-2172.489-6.812-2172.489-15.214S1300.167,1427.571,2500,1427.571"/>
		</defs>
		<clipPath id="SVGID_00000140707008370262541240000013133647967288740487_">
			<use xlink:href="#SVGID_1_"  style="overflow:visible;"/>
		</clipPath>
		
			<linearGradient id="SVGID_00000090287126243101385260000015294539671994551483_" gradientUnits="userSpaceOnUse" x1="384.4998" y1="1410.1804" x2="4671.9761" y2="1476.2596">
			<stop  offset="0" style="stop-color:#6E3C1B"/>
			<stop  offset="0.33" style="stop-color:#F8BE3B"/>
			<stop  offset="0.49" style="stop-color:#FCE2A6"/>
			<stop  offset="0.7" style="stop-color:#F8BE3B"/>
			<stop  offset="1" style="stop-color:#6E3C1B"/>
		</linearGradient>
		
			<rect x="327.511" y="1427.571" style="clip-path:url(#SVGID_00000140707008370262541240000013133647967288740487_);fill:url(#SVGID_00000090287126243101385260000015294539671994551483_);" width="4344.977" height="30.428"/>
	</g>
</g>
</svg>
