<?xml version="1.0" encoding="utf-8"?>
<!-- Generator: Adobe Illustrator 27.5.0, SVG Export Plug-In . SVG Version: 6.00 Build 0)  -->
<svg version="1.1" id="Layer_1" xmlns="http://www.w3.org/2000/svg" xmlns:xlink="http://www.w3.org/1999/xlink" x="0px" y="0px"
	 viewBox="0 0 600 450" style="enable-background:new 0 0 600 450;" xml:space="preserve">
<g>
	<g>
		<path style="fill:#F9EFE1;" d="M519.682,266.225c-11.652,41.369-34.172,76.428-64.826,103.69H112.418
			c-26.252-29.894-34.981-68.862-1.24-107.525c37.929-43.482,88.851-36.892,136.408-61.03
			c52.011-26.402,66.787-88.547,132.588-93.519c32.261-2.442,64.674,8.907,90.521,28.706
			C509.788,166.519,533.851,215.872,519.682,266.225z"/>
		<path style="fill:#EAC8AC;" d="M286.634,90.503c-0.005-5.536,1.638-17.686,8.753-18.751c6.529-0.978,6.79,9.906,6.411,14.068
			c-0.513,5.665-2.854,11.079-5.083,16.238c-1.302,3.015-7.465,10.936-6.861,13.694C286.797,105.837,286.639,96.106,286.634,90.503z
			 M324.352,197.236c1.348-1.059,2.456-2.416,3.798-3.5c2.757-2.216,5.942-3.765,9.201-5.09c6.683-2.728,14.702-6.224,16.068-14.065
			c1.374-7.875-3.249-14.787-10.94-11.204c-6.541,3.049-12.332,8.6-16.221,14.587c-3.777,5.822-5.251,11.288-5.667,15.413
			c-0.037,0.384-0.129,1.13-0.167,1.967c-1.371-4.449-2.771-8.803-4.194-13.048c3.336-12.146,19.129-18.432,25.96-28.641
			c4.279-6.389,3.189-17.895-5.667-19.913c-13.138-2.99-17.294,13.889-19.588,22.459c-1.467,5.499-1.946,17.541-0.923,25.437
			c-3.428-10.21-6.945-19.777-10.385-28.549c0.213,0.131,0.449,0.195,0.715,0.163c0.8-0.099,1.527-1.989,2.016-2.596
			c1.074-1.337,1.842-2.91,2.906-4.271c2.176-2.785,4.93-5.014,7.798-7.05c5.888-4.173,12.9-9.404,12.446-17.353
			c-0.452-7.981-6.527-13.66-13.203-8.421c-5.675,4.463-10.049,11.183-12.475,17.9c-2.355,6.526-2.542,12.186-2.014,16.294
			c0.033,0.25,0.082,0.659,0.15,1.135c-2.73-6.818-5.384-13.106-7.88-18.788c3.461-8.43,14.657-13.209,19.67-20.698
			c3.332-4.98,2.485-13.944-4.417-15.517c-10.235-2.328-13.475,10.824-15.258,17.5c-0.946,3.537-1.365,10.55-1.035,16.354
			c-4.721-10.627-8.775-18.925-11.531-24.356c-2.669-8.614-1.475-18.474-5.548-26.49c-2.643-5.203-10.687-7.226-12.569-0.348
			c-2.116,7.752,6.284,16.306,10.596,21.698c1.068,1.332,2.219,2.826,3.437,4.278c1.884,3.649,4.705,9.28,8.116,16.579
			c-0.396-0.6-0.815-1.181-1.171-1.741c-3.687-5.809-7.564-11.059-13.237-15.047c-5.408-3.802-20.08-8.354-23.896,0.237
			c-4.074,9.18,13.709,13.241,19.291,13.802c7.412,0.746,13.123,0.976,19.378,5.345l1.08,0.726c-0.011-0.111-0.039-0.222-0.06-0.33
			c1.644,3.575,3.399,7.488,5.236,11.726c-4.4-6.123-10.426-9.606-17.524-11.906c-5.438-1.766-13.679-3.609-19.392-1.559
			c-8.723,3.126-4.044,16.394,3.719,17.225c9.617,1.03,18.718-3.104,28.193-3.371c1.892-0.051,3.496-0.053,5.492,0.734
			c2.497,5.789,5.129,12.141,7.822,18.992c-0.587-0.791-1.216-1.475-1.507-1.811c-2.727-3.12-7.087-6.734-13.535-9.294
			c-6.639-2.636-14.569-3.813-21.672-2.519c-8.345,1.526-8.123,9.84-2.443,15.47c5.649,5.607,14.21,3.82,21.242,2.178
			c3.426-0.8,6.921-1.382,10.449-1.168c1.724,0.107,3.41,0.575,5.126,0.657c0.775,0.036,2.669,0.744,3.273,0.209
			c0.163-0.146,0.262-0.322,0.32-0.515c2.764,7.16,5.572,14.825,8.328,22.913c-5.218-6.698-12.165-10.621-20.281-13.25
			c-6.544-2.123-16.466-4.341-23.338-1.878c-10.5,3.764-4.866,19.735,4.475,20.737c11.577,1.237,22.532-3.737,33.936-4.059
			c2.06-0.056,3.838-0.066,5.94,0.634c1.155,3.432,2.3,6.925,3.428,10.497c-3.233-2.15-7.692-4.241-13.49-5.292
			c-7.028-1.271-15.037-0.859-21.74,1.816c-7.882,3.143-6.021,11.245,0.659,15.644c6.651,4.378,14.689,0.935,21.258-2.063
			c3.197-1.462,6.508-2.722,10.01-3.21c1.712-0.237,3.457-0.111,5.152-0.37c0.045-0.005,0.109-0.007,0.162-0.011
			c3.207,10.607,6.236,21.744,8.913,33.277c0.206,0.871,1.076,1.415,1.95,1.21c0.447-0.101,0.812-0.385,1.028-0.756
			c0.206-0.345,0.283-0.765,0.186-1.189c-2.616-11.265-5.568-22.147-8.691-32.538c0.06,0.015,0.119,0.04,0.184,0.048
			C322.605,199.385,323.736,197.712,324.352,197.236z"/>
		<g>
			<g>
				<path style="fill:#EAC8AC;" d="M431.035,112.306c0,0,19.444-29.529,60.377-43.124
					C491.411,69.182,476.233,93.088,431.035,112.306z"/>
				<path style="fill:#EAC8AC;" d="M428.17,118.839c0,0,36.812-22.53,68.223-24.173C496.392,94.666,479.628,111.335,428.17,118.839z
					"/>
				<path style="fill:#EAC8AC;" d="M430.503,109.765c0,0,18.883-25.69,29.883-50.914C460.386,58.851,432.782,77.982,430.503,109.765
					z"/>
				<path style="fill:#EAC8AC;" d="M419.599,126.044c0,0,15.335-30.43,12.942-61.574C432.541,64.47,417.404,91.727,419.599,126.044z
					"/>
				<path style="fill:#EAC8AC;" d="M418.969,131.375c0,0,32.941-19.84,65.278-19.665
					C484.247,111.71,462.888,125.763,418.969,131.375z"/>
				<path style="fill:#EAC8AC;" d="M412.658,137.383c0,0,7.924-29.413-3.151-52.754C409.507,84.629,402.899,107.566,412.658,137.383
					z"/>
				<path style="fill:#EAC8AC;" d="M413.243,143.91c0,0,36.571-20.13,64.687-17.068C477.93,126.842,439.879,143.086,413.243,143.91z
					"/>
				<path style="fill:#EAC8AC;" d="M408.22,155.976c0,0,30.797-19.438,63.563-16.066C471.783,139.91,447.916,150.986,408.22,155.976
					z"/>
				<path style="fill:#EAC8AC;" d="M406.912,148.243c0,0,0.027-0.415,0.049-1.179c0.156-5.242,0.205-26.944-8.403-43.623
					C398.558,103.442,393.308,120.215,406.912,148.243z"/>
				<path style="fill:#EAC8AC;" d="M404.918,166.507c0,0,29.989-15.632,56.405-14.773
					C461.323,151.733,447.191,162.708,404.918,166.507z"/>
				<path style="fill:#EAC8AC;" d="M395.74,179.098c0,0,29.986-15.634,56.401-14.775
					C452.141,164.323,438.011,175.296,395.74,179.098z"/>
				<path style="fill:#EAC8AC;" d="M394.448,188.245c0,0,28.726-15.352,54.172-14.789
					C448.62,173.455,435.122,184.166,394.448,188.245z"/>
				<path style="fill:#EAC8AC;" d="M393.156,197.39c0,0,27.464-15.07,51.942-14.8C445.098,182.59,432.232,193.033,393.156,197.39z"
					/>
				<path style="fill:#EAC8AC;" d="M391.865,206.539c0,0,26.202-14.796,49.712-14.815
					C441.577,191.724,429.341,201.901,391.865,206.539z"/>
				<path style="fill:#EAC8AC;" d="M389.03,215.894c0,0,24.938-14.51,47.48-14.825C436.51,201.069,424.906,210.982,389.03,215.894z"
					/>
				<path style="fill:#EAC8AC;" d="M386.855,225.476c0,0,23.677-14.23,45.254-14.838
					C432.108,210.638,421.132,220.286,386.855,225.476z"/>
				<path style="fill:#EAC8AC;" d="M384.907,234.399c0,0,22.409-13.947,43.017-14.848
					C427.924,219.551,417.577,228.932,384.907,234.399z"/>
				<path style="fill:#EAC8AC;" d="M384.848,243.374c0,0,21.147-13.667,40.788-14.859
					C425.636,228.514,415.924,237.629,384.848,243.374z"/>
				<path style="fill:#EAC8AC;" d="M382.897,252.296c0,0,19.889-13.388,38.557-14.875
					C421.454,237.421,412.37,246.275,382.897,252.296z"/>
				<path style="fill:#EAC8AC;" d="M382.803,260.963c0,0,18.622-13.106,36.325-14.887
					C419.128,246.077,410.674,254.662,382.803,260.963z"/>
				<path style="fill:#EAC8AC;" d="M382.831,270.558c0,0,17.359-12.827,34.093-14.899
					C416.924,255.66,409.101,263.98,382.831,270.558z"/>
				<path style="fill:#EAC8AC;" d="M381.541,279.703c0,0,16.095-12.544,31.861-14.909
					C413.402,264.795,406.213,272.846,381.541,279.703z"/>
				<path style="fill:#EAC8AC;" d="M402.986,156.335c0,0,1.304-20.319-10.862-37.847
					C392.125,118.488,390.207,138.893,402.986,156.335z"/>
				<path style="fill:#EAC8AC;" d="M401.854,166.912c0,0-3.118-19.918-15.265-36.079
					C386.589,130.833,389.282,150.88,401.854,166.912z"/>
				<path style="fill:#EAC8AC;" d="M397.501,175.902c0,0-3.356-19.26-15.411-34.725C382.09,141.177,385.04,160.569,397.501,175.902z
					"/>
				<path style="fill:#EAC8AC;" d="M395.58,186.551c0,0-3.602-18.604-15.559-33.373C380.021,153.178,383.232,171.918,395.58,186.551
					z"/>
				<path style="fill:#EAC8AC;" d="M392.599,195.563c0,0-3.848-17.944-15.711-32.02
					C376.888,163.542,380.359,181.629,392.599,195.563z"/>
				<path style="fill:#EAC8AC;" d="M389.539,204.798c0,0-4.09-17.29-15.858-30.667C373.681,174.131,377.409,191.563,389.539,204.798
					z"/>
				<path style="fill:#EAC8AC;" d="M387.784,215.108c0,0-4.335-16.632-16.008-29.313
					C371.776,185.795,375.761,202.574,387.784,215.108z"/>
				<path style="fill:#EAC8AC;" d="M386.661,225.437c0,0-4.577-15.975-16.16-27.959C370.5,197.478,374.744,213.603,386.661,225.437z
					"/>
				<path style="fill:#EAC8AC;" d="M384.52,236.014c0,0-4.82-15.318-16.308-26.606C368.212,209.408,372.716,224.878,384.52,236.014z
					"/>
				<path style="fill:#EAC8AC;" d="M383.23,246.682c0,0-5.06-14.663-16.453-25.254C366.777,221.429,371.538,236.247,383.23,246.682z
					"/>
				<path style="fill:#EAC8AC;" d="M382.53,257.057c0,0-5.304-14.004-16.603-23.898C365.926,233.159,370.948,247.325,382.53,257.057
					z"/>
				<path style="fill:#EAC8AC;" d="M382.482,267.555c0,0-5.551-13.345-16.756-22.548
					C365.725,245.007,371.005,258.517,382.482,267.555z"/>
				<path style="fill:#EAC8AC;" d="M381.827,279.813c0,0-5.791-12.688-16.903-21.19
					C364.924,258.623,370.461,271.478,381.827,279.813z"/>
			</g>
			<path style="fill:#EAC8AC;" d="M383.592,294.642c0.641-0.091,1.112-0.651,1.078-1.305
				c-6.208-114.328,52.842-184.561,53.438-185.259c0.448-0.523,0.39-1.312-0.135-1.758c-0.523-0.447-1.311-0.388-1.756,0.134
				c-0.602,0.701-60.305,71.646-54.041,187.019c0.043,0.683,0.625,1.215,1.318,1.179
				C383.524,294.648,383.559,294.646,383.592,294.642z"/>
		</g>
		<g>
			<g>
				<path style="fill:#EAC8AC;" d="M119.534,132.297c0,0-19.043-19.903-52.32-24.581C67.214,107.716,82.199,123.909,119.534,132.297
					z"/>
				<path style="fill:#EAC8AC;" d="M122.645,136.902c0,0-31.371-12.104-55.673-8.957C66.972,127.945,82.156,138.368,122.645,136.902
					z"/>
				<path style="fill:#EAC8AC;" d="M119.585,130.277c0,0-18.076-17.041-30.042-34.829C89.543,95.448,113.38,106.238,119.585,130.277
					z"/>
				<path style="fill:#EAC8AC;" d="M130.224,141.222c0,0-16.02-21.171-18.553-45.374C111.67,95.849,127.094,114.615,130.224,141.222
					z"/>
				<path style="fill:#EAC8AC;" d="M131.454,145.219c0,0-28.028-10.584-52.785-5.917C78.67,139.302,97.009,147.077,131.454,145.219z
					"/>
				<path style="fill:#EAC8AC;" d="M137.133,148.938c0,0-10.197-21.43-4.983-40.87C132.151,108.068,140.43,124.719,137.133,148.938z
					"/>
				<path style="fill:#EAC8AC;" d="M137.601,154.023c0,0-30.85-10.298-51.967-4.008C85.633,150.015,117.072,157.126,137.601,154.023
					z"/>
				<path style="fill:#EAC8AC;" d="M143.142,162.566c0,0-26.327-10.578-50.965-3.399
					C92.177,159.167,112.021,164.308,143.142,162.566z"/>
				<path style="fill:#EAC8AC;" d="M143.059,156.455c0,0-0.078-0.313-0.202-0.896c-0.855-3.996-3.936-20.62,0.322-34.609
					C143.179,120.95,149.555,133.069,143.059,156.455z"/>
				<path style="fill:#EAC8AC;" d="M147.15,170.173c0,0-25.176-7.774-45.3-3.412C101.85,166.761,114.22,173.189,147.15,170.173z"/>
				<path style="fill:#EAC8AC;" d="M155.95,178.535c0,0-25.173-7.776-45.296-3.414C110.654,175.121,123.021,181.549,155.95,178.535z
					"/>
				<path style="fill:#EAC8AC;" d="M158.223,185.363c0,0-24.167-7.737-43.59-3.737C114.632,181.627,126.48,187.942,158.223,185.363z
					"/>
				<path style="fill:#EAC8AC;" d="M160.495,192.19c0,0-23.161-7.697-41.881-4.057C118.614,188.132,129.937,194.331,160.495,192.19z
					"/>
				<path style="fill:#EAC8AC;" d="M162.767,199.02c0,0-22.155-7.664-40.175-4.382C122.592,194.638,133.397,200.723,162.767,199.02z
					"/>
				<path style="fill:#EAC8AC;" d="M166.253,205.792c0,0-21.149-7.622-38.468-4.702C127.786,201.091,138.07,207.059,166.253,205.792
					z"/>
				<path style="fill:#EAC8AC;" d="M169.264,212.831c0,0-20.142-7.584-36.763-5.025C132.501,207.806,142.267,213.66,169.264,212.831
					z"/>
				<path style="fill:#EAC8AC;" d="M172.008,219.395c0,0-19.13-7.546-35.05-5.346C136.957,214.049,146.204,219.788,172.008,219.395z
					"/>
				<path style="fill:#EAC8AC;" d="M173.311,226.267c0,0-18.124-7.509-33.343-5.668C139.968,220.599,148.69,226.22,173.311,226.267z
					"/>
				<path style="fill:#EAC8AC;" d="M176.058,232.83c0,0-17.119-7.47-31.635-5.992C144.423,226.838,152.626,232.348,176.058,232.83z"
					/>
				<path style="fill:#EAC8AC;" d="M177.345,239.46c0,0-16.11-7.433-29.926-6.315C147.419,233.145,155.102,238.538,177.345,239.46z"
					/>
				<path style="fill:#EAC8AC;" d="M178.67,246.817c0,0-15.103-7.394-28.219-6.638C150.451,240.179,157.614,245.459,178.67,246.817z
					"/>
				<path style="fill:#EAC8AC;" d="M180.94,253.644c0,0-14.093-7.355-26.508-6.957C154.432,246.687,161.071,251.848,180.94,253.644z
					"/>
				<path style="fill:#EAC8AC;" d="M147.204,162.107c0,0-3.85-15.389,3.016-30.528C150.22,131.579,154.551,146.947,147.204,162.107z
					"/>
				<path style="fill:#EAC8AC;" d="M149.555,170.054c0,0-0.404-15.702,6.638-29.792
					C156.193,140.262,156.942,156.004,149.555,170.054z"/>
				<path style="fill:#EAC8AC;" d="M154.151,176.332c0,0-0.128-15.231,6.942-28.773
					C161.093,147.559,161.551,162.834,154.151,176.332z"/>
				<path style="fill:#EAC8AC;" d="M157.117,184.224c0,0,0.151-14.762,7.244-27.757
					C164.361,156.467,164.528,171.278,157.117,184.224z"/>
				<path style="fill:#EAC8AC;" d="M160.666,190.711c0,0,0.432-14.291,7.55-26.742C168.215,163.969,168.092,178.317,160.666,190.711
					z"/>
				<path style="fill:#EAC8AC;" d="M164.306,197.36c0,0,0.709-13.823,7.852-25.725C172.158,171.635,171.747,185.516,164.306,197.36z
					"/>
				<path style="fill:#EAC8AC;" d="M167.097,205.015c0,0,0.99-13.354,8.156-24.709C175.253,180.307,174.553,193.724,167.097,205.015
					z"/>
				<path style="fill:#EAC8AC;" d="M169.406,212.773c0,0,1.267-12.883,8.464-23.692C177.87,189.081,176.879,202.033,169.406,212.773
					z"/>
				<path style="fill:#EAC8AC;" d="M172.53,220.579c0,0,1.546-12.414,8.766-22.677C181.296,197.902,180.015,210.391,172.53,220.579z
					"/>
				<path style="fill:#EAC8AC;" d="M175.014,228.575c0,0,1.822-11.947,9.068-21.661
					C184.082,206.914,182.512,218.938,175.014,228.575z"/>
				<path style="fill:#EAC8AC;" d="M177.007,236.428c0,0,2.1-11.478,9.373-20.644C186.38,215.784,184.518,227.344,177.007,236.428z"
					/>
				<path style="fill:#EAC8AC;" d="M178.516,244.466c0,0,2.382-11.006,9.679-19.63C188.195,224.836,186.044,235.931,178.516,244.466
					z"/>
				<path style="fill:#EAC8AC;" d="M180.736,253.768c0,0,2.659-10.535,9.983-18.608C190.719,235.16,188.278,245.787,180.736,253.768
					z"/>
			</g>
			<path style="fill:#EAC8AC;" d="M181.464,265.379c-0.503,0.021-0.943-0.341-1.009-0.846
				c-11.276-88.489-66.379-134.033-66.935-134.484c-0.417-0.339-0.482-0.95-0.143-1.366c0.338-0.416,0.95-0.481,1.364-0.143
				c0.56,0.452,56.264,46.449,67.644,135.746c0.064,0.53-0.308,1.018-0.845,1.087C181.517,265.375,181.489,265.378,181.464,265.379z
				"/>
		</g>
		<path style="fill:#EAC8AC;" d="M491.342,167.043c0,0-14.579-0.721-23.361,7.839c-8.78,8.557-8.438,23.148-8.438,23.148
			s14.579,0.72,23.359-7.839C491.684,181.634,491.342,167.043,491.342,167.043z M466.242,192.972
			c-0.072-0.003-0.142-0.022-0.204-0.051l-2.572,2.507c-0.366,0.358-0.952,0.348-1.306-0.015c-0.358-0.366-0.351-0.954,0.015-1.311
			l7.541-7.35l-0.516-10.181c-0.018-0.34,0.245-0.631,0.585-0.648c0.341-0.018,0.63,0.246,0.646,0.585l0.463,9.1l8.281-8.072
			c0-0.027-0.012-0.053-0.01-0.079l0.297-6.321c0.017-0.339,0.306-0.604,0.647-0.587c0.34,0.017,0.603,0.306,0.588,0.646
			l-0.246,5.094l7.231-7.044c0.363-0.357,0.951-0.348,1.306,0.021c0.358,0.364,0.351,0.949-0.015,1.307l-12.401,12.086l6.492,0.415
			c0.34,0.019,0.599,0.313,0.575,0.652c-0.019,0.343-0.315,0.599-0.654,0.578l-7.462-0.478c-0.042-0.003-0.078-0.019-0.12-0.03
			l-8.218,8.007l8.511,0.605c0.34,0.025,0.595,0.319,0.571,0.659c-0.021,0.341-0.317,0.597-0.659,0.571L466.242,192.972z"/>
		<path style="fill:#EAC8AC;" d="M169.155,90.392c0,0-4.779,20.346,5.003,34.924c9.781,14.578,30.42,17.867,30.42,17.867
			s4.781-20.346-5.002-34.924C189.792,93.68,169.155,90.392,169.155,90.392z M199.188,132.44c-0.027,0.103-0.074,0.193-0.126,0.272
			l2.865,4.273c0.411,0.607,0.247,1.43-0.361,1.837c-0.608,0.408-1.43,0.246-1.84-0.361l-8.4-12.52l-14.473-1.903
			c-0.486-0.062-0.823-0.507-0.761-0.99c0.063-0.484,0.509-0.824,0.989-0.759l12.935,1.7l-9.228-13.749
			c-0.037-0.006-0.074,0.003-0.114-0.004l-8.825-2.053c-0.473-0.112-0.768-0.588-0.656-1.061c0.111-0.477,0.586-0.772,1.061-0.662
			l7.11,1.662l-8.05-12c-0.41-0.607-0.245-1.431,0.361-1.839c0.608-0.408,1.432-0.248,1.84,0.359l13.813,20.588l2.263-9.035
			c0.12-0.474,0.597-0.765,1.071-0.641c0.474,0.116,0.759,0.598,0.641,1.068l-2.601,10.387c-0.013,0.061-0.049,0.106-0.071,0.16
			l9.15,13.644l3.054-11.832c0.122-0.47,0.6-0.756,1.074-0.633c0.474,0.119,0.757,0.602,0.636,1.076L199.188,132.44z"/>
		<g>
			<path style="fill:#EAC8AC;" d="M464.081,262.408c3.748-6.418,8.087-12.495,12.784-18.268c2.653-3.316,5.486-6.477,8.357-9.6
				c2.906-3.096,5.915-6.096,8.981-9.029c6.19-5.808,12.675-11.292,19.492-16.336c6.076-4.497,12.365-8.742,18.984-12.392
				c-7.724,0.79-26.78,7.883-26.78,7.883l-3.142,6.516l-0.475-5.357l-14.877,10.792l-5.049,12.082l-2.598-3.608
				c-4.814,9.303-9.811,21.981-9.811,21.981l-1.761-5.003c-1.667,4.225-4.563,20.314-4.563,20.314
				C463.778,262.395,463.927,262.399,464.081,262.408z"/>
			<path style="fill:#EAC8AC;" d="M533.028,197.035c-6.067,4.564-11.983,9.274-17.79,14.101c-3.212,2.712-6.431,5.406-9.553,8.211
				c-3.142,2.779-6.257,5.591-9.281,8.492c-3.066,2.864-6.055,5.807-8.988,8.799c-2.967,2.965-5.807,6.049-8.654,9.133
				c-4.883,5.371-9.558,10.938-14.096,16.669c12.241,0.661,20.764-4.382,20.764-4.382l-5.58-4.786l9.639,3.222
				c2.978-0.261,17.94-14.177,17.94-14.177l-10.19-4.015l13.346,0.376l11.137-15.136l-8.203-3.233l10.465-1.047L533.028,197.035z"/>
		</g>
	</g>
	<g>
		<g>
			<g>
				<rect x="348.952" y="200.454" style="fill:#7384AD;" width="57.878" height="21.657"/>
				<rect x="337.75" y="221.736" style="fill:#7384AD;" width="79.163" height="13.816"/>
				<rect x="344.845" y="231.819" style="fill:#7384AD;" width="65.346" height="10.082"/>
				<polygon style="fill:#7384AD;" points="344.845,241.901 337.377,252.73 418.406,252.73 408.697,240.408 380.692,235.553 				"/>
				<polygon style="fill:#7384AD;" points="339.99,251.238 321.694,257.584 434.836,257.584 413.551,250.863 389.653,242.647 				
					"/>
				<rect x="336.629" y="254.225" style="fill:#7384AD;" width="81.031" height="28.005"/>
				<polygon style="fill:#7384AD;" points="338.124,280.735 324.681,289.325 433.341,289.325 411.684,277.749 363.888,272.147 				
					"/>
				<polygon style="fill:#7384AD;" points="428.861,318.45 324.308,318.45 331.776,287.083 421.393,287.083 				"/>
			</g>
			<g>
				<rect x="349.885" y="195.973" style="fill:#7384AD;" width="12.697" height="4.668"/>
				<rect x="350.796" y="191.492" style="fill:#7384AD;" width="11.016" height="4.668"/>
				<rect x="351.706" y="186.871" style="fill:#7384AD;" width="9.266" height="4.668"/>
				<rect x="352.781" y="182.531" style="fill:#7384AD;" width="7.375" height="4.481"/>
				<rect x="353.632" y="178.19" style="fill:#7384AD;" width="5.694" height="4.481"/>
				<rect x="354.414" y="174.665" style="fill:#7384AD;" width="4.201" height="3.921"/>
				<rect x="354.928" y="171.469" style="fill:#7384AD;" width="3.128" height="4.201"/>
				<polygon style="fill:#7384AD;" points="357.588,172.308 355.395,172.308 356.49,166.053 				"/>
			</g>
			<g>
				<rect x="364.973" y="191.676" style="fill:#7384AD;" width="25.838" height="9.498"/>
				<rect x="366.825" y="182.558" style="fill:#7384AD;" width="22.42" height="9.498"/>
				<rect x="368.678" y="173.154" style="fill:#7384AD;" width="18.856" height="9.498"/>
				<rect x="370.865" y="164.32" style="fill:#7384AD;" width="15.007" height="9.119"/>
				<rect x="372.596" y="155.488" style="fill:#7384AD;" width="11.586" height="9.119"/>
				<rect x="374.188" y="148.315" style="fill:#7384AD;" width="8.548" height="7.978"/>
				<rect x="375.235" y="141.809" style="fill:#7384AD;" width="6.364" height="8.55"/>
				<polygon style="fill:#7384AD;" points="380.647,143.518 376.184,143.518 378.416,130.79 				"/>
			</g>
			<g>
				<rect x="393.013" y="195.973" style="fill:#7384AD;" width="12.697" height="4.668"/>
				<rect x="393.923" y="191.492" style="fill:#7384AD;" width="11.017" height="4.668"/>
				<rect x="394.834" y="186.871" style="fill:#7384AD;" width="9.266" height="4.668"/>
				<rect x="395.91" y="182.531" style="fill:#7384AD;" width="7.375" height="4.481"/>
				<rect x="396.76" y="178.19" style="fill:#7384AD;" width="5.694" height="4.481"/>
				<rect x="397.542" y="174.665" style="fill:#7384AD;" width="4.201" height="3.921"/>
				<rect x="398.056" y="171.469" style="fill:#7384AD;" width="3.128" height="4.201"/>
				<polygon style="fill:#7384AD;" points="400.715,172.308 398.523,172.308 399.62,166.053 				"/>
			</g>
		</g>
		<g id="Shiva">
			<g>
				<path style="fill:#5E7096;" d="M269.962,206.245c-0.564-1.69-1.968-3.04-2.406-4.785c-1.011-4.017,1.35-8.13,0.483-12.18
					c-0.448-2.092-1.438-3.825-2.565-5.592c-1.049-1.646-1.141-2.545-1.328-4.481c-0.389-4.024-1.099-7.907-4.281-10.733
					c-8.698-7.717-23.574-2.577-24.256,9.451c-0.087,1.494,0.209,3.087-0.001,4.566c-0.263,1.83-1.323,3.158-2.393,4.613
					c-1.315,1.788-2.664,3.505-2.905,5.807c-0.229,2.194,1.083,3.799,1.5,5.854c0.88,4.345-3.629,7.409-2.359,11.577
					c2.643,8.67,13.886,9.994,21.326,9.915c6.48-0.067,16.971-1.075,19.012-8.372C270.292,210.092,270.562,208.046,269.962,206.245z
					"/>
				<path style="fill:#5E7096;" d="M259.363,163.581c0,4.304-4.234,7.793-9.456,7.793c-5.222,0-9.455-3.49-9.455-7.793
					c0-4.304,4.233-7.794,9.455-7.794C255.129,155.786,259.363,159.276,259.363,163.581z"/>
				<path style="fill:#7384AD;" d="M300.793,279.9c-0.257-1.74-2.044-3.734-4.658-5.778c-0.39-1.063-0.835-2.094-1.22-3.052
					c-0.35-0.876-0.676-1.74-1.019-2.592c0.04,0.011,0.077,0.018,0.117,0.03c-0.888-3.633-1.896-7.239-3.008-10.809
					c-0.915-2.947-1.9-5.881-3.083-8.732c-1.163-2.808-2.974-5.096-3.592-8.139c-0.216-1.069-0.557-2.125-0.833-3.178
					c-0.719-2.742-1.436-5.482-2.155-8.221c-0.961-3.665-1.919-7.329-2.88-10.991c0,0-1.368-6.153-8.886-8.204l-12.816-3.588
					l-0.573-7.778c1.371-1.273,2.436-2.951,3.15-4.636c1.473-3.471,1.871-7.352,2.155-11.08c0.183-2.399-0.316-6.691-2.49-8.163
					c-1.814-1.224-4.983-0.928-7.027-0.642c0,0-2.563,0.342-4.784-0.17c0,0-7.69-2.051-8.716,4.272c0,0-1.844,14.104,4.754,20.008
					l-0.725,8.123l-15.649,4.851c0,0-4.366,2.187-5.202,7.151c-0.613,1.186-4.93,9.669-5.564,15.066l-6.702-13.107
					c-0.131-0.355-0.253-0.697-0.35-1.017c-0.339-1.112-0.296-2.209-0.175-3.311c0.188-1.705,0.567-3.425,0.02-5.234
					c-0.271-0.896-0.646-1.806-0.82-2.738c-0.243-1.298,0.141-2.638-0.004-3.901c-0.274-2.381-2.653-0.804-2.984,0.817
					c-0.991-0.849-1.408-2.501-2.941-2.93c-1.81-0.508-1.658,1.352-1.729,2.562c-1.336-2.225-1.873,1.635-1.552,3.105
					c-0.395-0.987-1.045,0.576-1.136,1.149c-0.131,0.82-0.076,1.779,0.416,2.455c-1.11-0.925-1.708,0.08-1.586,1.023
					c0.341,2.65,1.549,5.005,3.052,7.178c0.653,0.945,1.38,1.412,2.161,2.145c0.98,3.251,1.016,6.779,1.924,10.081
					c0.92,3.34,2.304,6.542,4.479,9.264c2.523,3.155,6.365,6.469,10.716,5.256c1.383-0.387,2.624-1.431,3.736-2.691
					c0.982-1.435,4.55-6.814,7.094-12.791c0.301,1.101,0.564,1.978,0.659,2.293c1.001,3.259,2.925,6.528,3.564,9.859
					c0.927,4.826,1.982,12.026-0.069,16.674l-0.504,0.362c-6.704,2.853-29.795,13.13-30.769,19.749c0,0-4.33,11.848,11.62,11.393
					c0,0,17.775,0.146,37.482-8.99c19.707,9.135,37.482,8.99,37.482,8.99C305.12,291.748,300.793,279.9,300.793,279.9z
					 M265.254,244.827c0.364-3.52,2.173-7.166,3.025-10.625c0.293-1.187,0.551-2.383,0.768-3.585
					c1.014,2.124,2.029,4.25,3.042,6.373c1.449,3.039,3.382,5.893,4.337,9.149c0.702,2.394,1.051,4.801,1.842,7.191
					c1.664,5.021,4.31,9.722,7.203,14.148c-6.13-3.269-12.438-6.044-15.448-7.325l-4.265-3.063
					C265.321,253.048,264.848,248.738,265.254,244.827z"/>
				<path style="fill:#7384AD;" d="M213.613,170.16c-0.567-1.222-1.107-2.538-1.341-3.874c-0.195-1.11,0.029-2.179-0.022-3.264
					c-3.175,2.148-3.356,6.071-2.346,9.547c0.512-0.262,0.925-0.74,1.342-1.142c1.75,1.424,2.562,5.626,0.823,7.336
					c-1.168,1.148-4.229,1.614-5.889,0.96c0.108-0.182,0.167-0.382,0.167-0.593c0-0.535-0.385-1.005-0.969-1.281v-1.396
					c0-0.487-0.292-0.904-0.709-1.091c0.007-0.191,0.016-0.38,0.022-0.571c0.268-0.409,0.658-0.783,0.954-0.975
					c0.538-0.35,0.925-0.233,1.197-0.802c0.291-0.608,0.091-1.746,0.091-2.408c0-2.552-0.554-4.921-1.121-7.404
					c-0.44-1.918-1.039-4.408-1.623-6.066c-0.596,1.657-1.193,4.148-1.632,6.066c-0.569,2.483-1.123,4.852-1.123,7.404
					c0,0.662-0.198,1.8,0.091,2.408c0.272,0.57,0.659,0.453,1.197,0.802c0.295,0.193,0.686,0.566,0.954,0.975
					c0.006,0.192,0.016,0.381,0.022,0.571c-0.419,0.187-0.711,0.604-0.711,1.091v1.396c-0.584,0.276-0.968,0.746-0.968,1.281
					c0,0.211,0.059,0.411,0.166,0.593c-1.66,0.654-4.72,0.188-5.888-0.96c-1.74-1.709-0.927-5.911,0.823-7.336
					c0.417,0.401,0.83,0.88,1.34,1.142c1.01-3.477,0.83-7.399-2.343-9.547c-0.051,1.085,0.171,2.154-0.024,3.264
					c-0.234,1.336-0.775,2.652-1.341,3.874c-1.048,2.255-2.075,4.771-1.595,7.344c0.701,3.775,5.61,4.219,8.933,3.743
					c-0.046,0.125-0.072,0.254-0.072,0.389c0,0.518,0.361,0.973,0.913,1.254c-0.552,0.277-0.913,0.735-0.913,1.252
					c0,0.518,0.361,0.975,0.913,1.255c-0.552,0.279-0.913,0.735-0.913,1.253c0,0.518,0.361,0.973,0.913,1.253
					c-0.552,0.279-0.913,0.735-0.913,1.254c0,0.535,0.384,1.006,0.968,1.281v93.107c0,0.661,0.536,1.194,1.197,1.194
					c0.661,0,1.195-0.533,1.195-1.194v-93.107c0.584-0.275,0.969-0.746,0.969-1.281c0-0.519-0.36-0.975-0.911-1.254
					c0.552-0.28,0.911-0.735,0.911-1.253c0-0.518-0.36-0.974-0.911-1.253c0.552-0.28,0.911-0.736,0.911-1.255
					c0-0.517-0.36-0.975-0.911-1.252c0.552-0.281,0.911-0.736,0.911-1.254c0-0.135-0.026-0.264-0.072-0.389
					c3.323,0.475,8.232,0.032,8.934-3.743C215.687,174.932,214.661,172.415,213.613,170.16z"/>
			</g>
			<polygon style="fill:#7384AD;" points="306.061,302.035 197.648,302.035 206.143,285.45 297.567,285.45 			"/>
			<polygon style="fill:#7384AD;" points="310.107,317.812 194.411,317.812 204.525,298.394 299.993,298.394 			"/>
		</g>
		<g>
			<polygon style="fill:#B97474;" points="90.954,317.315 166.298,390.646 513.752,391.149 417.061,317.315 			"/>
			<g>
				<g>
					<g>
						<g>
							<path style="fill:#FAAF88;" d="M373.791,343.365c-0.917,1.448-0.56,3.348-1.027,4.998c-0.322,1.138-1.032,2.136-1.336,3.279
								c-0.302,1.144-0.01,2.614,1.084,3.053c1.305,0.526,2.617-0.725,3.367-1.915c-0.264,1.149-0.333,2.344-0.206,3.517
								c1.267,0.35,2.694,0.041,3.705-0.797c0.88,0.922,2.696,0.55,3.145-0.644c-0.227,0.425,0.483,0.709,0.962,0.666
								c8.468-0.76,16.397-6.016,20.394-13.521c0.772-1.452-15.639-3.133-17.526-2.447c-2.1,0.767-3.233,1.754-5.587,1.974
								C378.378,341.753,375.361,340.893,373.791,343.365z"/>
							<g>
								<g>
									<path style="fill:#CA9B6A;" d="M449.844,319.022c-0.455-1.505-1.593-2.706-2.822-3.69
										c-7.262-5.828-17.546-5.4-26.829-4.684c-5.204,0.403-20.697-9.28-22.503-2.454c-0.398,1.505-8.437-10.524-4.432,0
										c-3.09-1.217-1.446,10.351-4.718,10.004c-6.31-0.663-12.582,1.178-18.656,3.004c-2.614,0.784-5.389,1.674-7.103,3.795
										c-1.285,1.588-1.569,4.089-0.607,5.75c-0.898,4.407-1.054,8.902,1.273,12.603c2.328,3.708,6.709,5.689,11.039,6.35
										c4.328,0.662,8.737,0.212,13.119,0.167c6.289-0.064,12.609,0.712,18.854-0.03c4.378-0.523,8.658-1.805,12.616-3.75
										c11.704-3.578,23.016-9.797,29.212-20.23C449.517,323.787,450.546,321.327,449.844,319.022z"/>
									<g>
										<path style="fill:#ACB8E8;" d="M378.266,244.592c-3.408,1.413-7.119,3.347-10,5.208c-3.424,2.215-5.691,5.618-5.997,9.73
											c-1.088,14.716,0.28,29.213-0.603,43.927c-0.376,6.384-1.645,13.139,0.535,19.397c0.346,0.995,0.818,1.995,1.648,2.644
											c1.687,1.318,4.198,0.707,5.996-0.457c1.798-1.164,3.296-2.811,5.266-3.652c5.454-2.326,12.178,2.324,17.482-0.331
											c2.702-1.353,4.432-4.39,7.345-5.194c3.617-0.999,7.923,1.8,11.021-0.319c1.356-0.929,2.142-2.656,3.694-3.197
											c0.697-0.24,1.552-0.253,1.998-0.839c1.19-1.565-0.718-5.125-1.149-6.625c-0.833-2.895-1.447-5.853-1.841-8.836
											c-0.745-5.641-0.701-11.386,0.15-17.014c0.741-4.889,2.086-9.742,1.929-14.684c-0.209-6.654-4.487-12.538-9.735-16.317
											c-1.245-0.895-2.533-1.777-3.863-2.539c-2.439-1.393-3.674-0.97-6.325-0.509c-2.247,0.389-4.521-0.295-6.726-0.875
											c-2.876-0.755-5.979-1.329-8.775-0.316C379.65,244.033,378.965,244.303,378.266,244.592z"/>
										<g>
											<path style="fill:#FAAF88;" d="M382.74,241.464c0,0-3.456,4.873-3.482,4.912c-0.256,0.358,2.176,2.675,2.315,3.12
												c0.202,0.63,0.25,1.308,0.482,1.93c0.669,1.794,2.703,2.777,3.432,4.548c0.488,1.19,0.329,2.613,1.021,3.698
												c0.565,0.873,1.574,1.339,2.401,1.973c0.663,0.507,4.681,6.081,4.348,6.73c0.951-1.85,1.733-4.526,3.143-6.017
												c0.446-0.473,1.059-0.799,1.386-1.359c0.499-0.851,0.188-1.941,0.395-2.906c0.448-2.068,2.393-3.989,3.396-5.853
												c0.448-0.836,2.799-4.072,2.6-5.043c0-0.002-1.183-5.733-1.183-5.733H382.74z"/>
											<path style="fill:#FAAF88;" d="M407.608,224.619c-0.434,3.781-0.846,7.59-1.894,11.26
												c-1.597,5.594-6.242,11.196-12.436,10.424c-3.927-0.49-6.569-3.132-8.771-6.189c-1.714-2.383-4.274-5.775-4.028-8.886
												c0.191-2.414,0.352-6.655,2.596-8.267c2.084-1.497,5.879-3.205,8.488-3.012c0,0,9.628-1.751,12.107-3.354
												C403.67,216.596,407.463,219.95,407.608,224.619z"/>
											<path style="fill:#FAAF88;" d="M378.953,225.739c-0.471,0.062-0.831,0.631-0.964,1.233
												c-0.133,0.602-0.096,1.245-0.089,1.872c0.018,1.217-0.08,2.476,0.246,3.614c0.294,1.032,1.318,2.576,2.268,2.424
												c0.923-0.149,1.168-2.111,1.177-3.19C381.603,230.019,380.607,225.522,378.953,225.739z"/>
											<path style="fill:#623B41;" d="M398.489,219.778c-2.805,1.142-5.755,1.913-8.757,2.286
												c-2.1,0.263-4.286,0.346-6.184,1.285c-1.901,0.938-3.442,3.052-2.916,5.107c-0.925-1.992-3.063-3.078-4.498-4.739
												c-1.948-2.252-2.472-5.508-1.906-8.438c0.565-2.93,2.103-5.587,3.875-7.984c2.184-2.952,4.948-5.72,8.489-6.669
												c1.177-0.315,2.409-0.419,3.569-0.789c1.585-0.507,3.013-1.498,4.653-1.768c2.071-0.343,4.319,0.495,6.23-0.369
												c0.688-0.311,1.696-0.727,2.014-0.04c0.118,0.255,0.05,0.56,0.138,0.827c0.288,0.848,1.657,0.52,2.325,1.117
												c0.845,0.756,0.004,1.967,0.056,2.87c0.069,1.208,0.842,1.872,0.715,3.121c-0.216,2.105-0.522,3.613-0.271,5.764
												C406.55,215.88,402.175,218.281,398.489,219.778z"/>
											<path style="fill:#623B41;" d="M410.313,209.469c1.091,2.474,1.619,5.272,0.982,7.897
												c1.003,0.241,1.086,1.626,0.899,2.637c-0.817,4.393-2.527,8.619-4.99,12.345c-0.623-2.829,0.821-5.795,0.273-8.642
												c-0.447-2.309-2.138-4.172-3.946-5.674c-0.358-0.299-0.745-0.614-0.88-1.063c-0.087-0.294-0.053-0.607-0.018-0.912
												c0.189-1.686,0.378-3.377,0.567-5.066c0.217-1.938,0.439-3.894,1.066-5.741c0.667-1.964,1.403-2.711,2.906-0.992
												C408.462,205.732,409.525,207.685,410.313,209.469z"/>
											<g>
												<path style="fill:#623B41;" d="M389.133,242.194c-0.692,0.904-1.538,1.774-2.633,2.092
													c0.141-0.465,0.458-0.876,0.873-1.129c-0.436,0.258-0.908,0.457-1.395,0.594c-0.022-0.278,0.15-0.56,0.408-0.663
													c-0.581,0.285-1.187,0.52-1.812,0.697c0.17-0.116,0.338-0.231,0.508-0.345c-0.351-2.375,0.554-4.901,2.332-6.514
													c1.779-1.61,4.38-2.262,6.708-1.678c2.175,0.546,2.288,2.835,0.081,3.336
													C391.648,239.163,390.74,240.093,389.133,242.194z"/>
												<path style="fill:#623B41;" d="M400.754,242.194c0.692,0.904,1.538,1.774,2.633,2.092
													c-0.139-0.465-0.456-0.876-0.872-1.129c0.435,0.258,0.906,0.457,1.393,0.594c0.025-0.278-0.148-0.56-0.406-0.663
													c0.581,0.285,1.189,0.52,1.812,0.697c-0.168-0.116-0.339-0.231-0.506-0.345c0.348-2.375-0.555-4.901-2.335-6.514
													c-1.78-1.61-4.38-2.262-6.709-1.678c-2.175,0.546-2.287,2.835-0.081,3.336
													C398.238,239.163,399.147,240.093,400.754,242.194z"/>
											</g>
											<path style="fill:#623B41;" d="M387.504,242.452c0.151,0.252,0.317,0.498,0.527,0.729
												c0.129,0.141,0.293,0.286,0.484,0.266c0.189-0.018,0.316-0.31,0.15-0.401c1.728,2.1,4.582,3.212,7.278,2.84
												c2.697-0.373,5.139-2.22,6.233-4.713c-0.268,0.139-0.363,0.529-0.19,0.777c0.261-0.589,0.788-1.056,1.405-1.249
												c1.208-2.057,2.177-4.255,2.883-6.535c-1.011,5.964,0.599,12.448-2.001,17.909c-0.008-0.251-0.016-0.502-0.024-0.753
												c-0.609,1.506-1.612,2.857-2.882,3.868c-0.121,0.095-0.266,0.194-0.414,0.158c-0.153-0.037-0.21-0.293-0.062-0.332
												c-0.763,0.87-1.674,1.611-2.684,2.179c-0.19-0.153-0.265-0.437-0.176-0.665c-0.652,0.611-1.302,1.22-1.953,1.827
												c-0.245-0.358-0.333-0.818-0.238-1.237c-0.036,0.251-0.227,0.474-0.47,0.552c-1.573-0.953-3.15-1.904-4.726-2.854
												c0.156,1.03,0.685,2.001,1.468,2.69c-2.274-1.003-4.261-2.651-5.662-4.705c0.231,0.663,0.461,1.326,0.688,1.987
												c-0.82-0.807-1.603-1.654-2.347-2.535c0.142,0.34,0.283,0.681,0.424,1.023c-2.68-1.562-3.746-4.909-3.985-7.998
												c-0.239-3.09,0.115-6.262-0.704-9.25c-0.099-0.37-0.217-0.762-0.091-1.121c0.091-0.263,0.301-0.466,0.467-0.689
												c0.798-1.092,0.483-2.623-0.015-3.882c-0.498-1.259-1.158-2.559-0.934-3.893c0.237-1.42,1.405-2.474,2.501-3.404
												c-0.45,0.851-1.048,1.83-1.233,2.787c-0.165,0.861-0.07,1.857,0.038,2.722c0.172,1.353,0.685,2.634,0.878,3.981
												c0.204,1.42,0.122,2.829,0.531,4.233c0.305,1.048,0.841,2.058,1.683,2.75c0.547,0.453,1.205,0.754,1.79,1.161
												C386.822,241.152,387.117,241.812,387.504,242.452z"/>
											<g>
												<path style="fill:#DC645A;" d="M379.907,232.857c-0.168-0.035-0.24-0.152-0.213-0.269
													c0.005-0.018,0.429-1.888-0.622-3.578c-0.064-0.103-0.032-0.237,0.07-0.301c0.102-0.064,0.238-0.032,0.302,0.07
													c1.148,1.85,0.695,3.826,0.676,3.91C380.096,232.79,380.007,232.857,379.907,232.857z"/>
												<path style="fill:#DC645A;" d="M379.907,230.985c-0.041,0-0.082-0.011-0.118-0.035l-1.142-0.735
													c-0.101-0.067-0.131-0.201-0.065-0.304c0.065-0.101,0.201-0.13,0.303-0.064l1.142,0.735
													c0.101,0.066,0.131,0.201,0.065,0.303C380.049,230.949,379.979,230.985,379.907,230.985z"/>
											</g>
											<path style="fill:#623B41;" d="M392.328,243.458c0.522-0.666,0.733-1.523,1.185-2.24c0.45-0.718,1.332-1.316,2.112-0.992
												c0.735,0.308,0.955,1.214,1.345,1.91c0.382,0.681,1.009,1.226,1.742,1.507c0.933,0.361,1.986,0.294,2.94,0.605
												c0.384,0.126,0.785,0.35,0.908,0.735c0.161,0.519-0.246,1.033-0.658,1.387c-1.617,1.381-3.772,2.056-5.897,2.066
												c-2.125,0.009-4.223-0.618-6.112-1.591c-0.843-0.435-2.92-2.049-1.281-2.46
												C390.016,244.033,391.142,244.964,392.328,243.458z"/>
											<path style="fill:#DC645A;" d="M397.69,239.881h-5.323c-0.121,0-0.219-0.098-0.219-0.219
												c0-0.121,0.098-0.219,0.219-0.219h5.323c0.121,0,0.219,0.098,0.219,0.219
												C397.909,239.783,397.811,239.881,397.69,239.881z"/>
											<path style="fill:#DC645A;" d="M395.939,233.848h-1.422c-0.121,0-0.219-0.096-0.219-0.218c0-0.121,0.098-0.22,0.219-0.22
												h1.422c0.267,0,0.522-0.114,0.699-0.315c0.179-0.203,0.263-0.473,0.23-0.741c-0.312-2.549-1.726-4.293-1.74-4.311
												c-0.077-0.094-0.064-0.232,0.03-0.309c0.092-0.079,0.23-0.064,0.308,0.03c0.062,0.074,1.509,1.856,1.837,4.537
												c0.048,0.393-0.074,0.788-0.336,1.085C396.705,233.68,396.331,233.848,395.939,233.848z"/>
											<g>
												<path style="fill:#623B41;" d="M389.436,223.172c-1.241-0.182-2.537-0.359-3.724,0.043
													c-1.181,0.399-2.098,1.316-2.972,2.204c1.347,0.052,2.701-0.111,3.998-0.477c-0.248,0.079-0.495,0.159-0.741,0.24
													c1.265,0.267,2.611,0.479,3.907,0.492c0.751,0.007,2.873,0.107,3.263-0.744
													C393.873,223.392,390.233,223.291,389.436,223.172z"/>
												<path style="fill:#623B41;" d="M387.611,226.211v1.326c0,0.843,0.517,1.532,1.147,1.532
													c0.634,0,1.151-0.689,1.151-1.532v-1.216C389.077,226.334,388.296,226.286,387.611,226.211z"/>
											</g>
											<g>
												<path style="fill:#623B41;" d="M400.255,223.172c1.241-0.182,2.536-0.359,3.723,0.043
													c1.182,0.399,2.099,1.316,2.973,2.204c-1.346,0.052-2.7-0.111-3.997-0.477c0.248,0.079,0.494,0.159,0.741,0.24
													c-1.266,0.267-2.611,0.479-3.908,0.492c-0.752,0.007-2.872,0.107-3.262-0.744
													C395.819,223.392,399.458,223.291,400.255,223.172z"/>
												<path style="fill:#623B41;" d="M402.765,226.211v1.326c0,0.843-0.518,1.532-1.151,1.532
													c-0.631,0-1.148-0.689-1.148-1.532v-1.216C401.299,226.334,402.08,226.286,402.765,226.211z"/>
											</g>
										</g>
									</g>
								</g>
								<path style="fill:#905A38;" d="M405.314,334.566c-0.04,0-0.081-0.011-0.117-0.035c-0.102-0.064-0.132-0.2-0.067-0.302
									c7.491-11.752,23.615-15.807,23.777-15.846c0.117-0.027,0.235,0.043,0.264,0.161c0.029,0.117-0.043,0.236-0.161,0.264
									c-0.16,0.04-16.117,4.055-23.511,15.656C405.456,334.53,405.386,334.566,405.314,334.566z"/>
								<path style="fill:#905A38;" d="M407.608,331.53c-0.028,0-0.056-0.005-0.082-0.016c-0.174-0.07-17.48-6.995-27.694-2.173
									c-0.107,0.054-0.239,0.006-0.291-0.104c-0.052-0.11-0.005-0.24,0.104-0.292c10.385-4.906,27.87,2.09,28.045,2.163
									c0.112,0.046,0.166,0.173,0.12,0.285C407.776,331.478,407.695,331.53,407.608,331.53z"/>
							</g>
							<path style="fill:#FAAF88;" d="M436.365,347.772c-0.282-0.838-1.169-1.311-2.02-1.541c-1.148-0.309-2.248-0.586-3.33-0.692
								c-0.524-0.649-1.359-1.105-2.156-1.431c-5.657-2.341-12.041-2.189-17.875-4.035c-2.711-0.855-6.735-2.784-9.629-2.008
								c-1.018,0.273-1.947,0.948-2.646,1.817c-1.166,1.457-1.701,3.464-0.963,5.103c1.329,2.938,5.484,3.432,8.29,3.962
								c3.949,0.742,7.354,1.915,10.538,4.554c0.861,0.715,1.687,1.506,2.666,2.036c0.489,0.933,1.402,1.709,2.414,2.062
								c1.042,0.363,2.219,0.507,3.316,0.384c0.5-0.061,1.19-0.132,1.613-0.431c0.056-0.039,1.223-1.186,0.593-1.257
								c0.846,0.091,1.769,0.165,2.477-0.303c0.708-0.468,0.904-1.714,0.151-2.108c0.983,0.139,2.103-0.174,2.615-1.023
								c0.515-0.848,0.063-2.207-0.923-2.329c1.116,0.151,2.289,0.293,3.337-0.117C435.88,350.008,436.723,348.838,436.365,347.772z
								"/>
							<path style="fill:#DC645A;" d="M421.027,355.229c-0.12,0-0.217-0.096-0.219-0.216c-0.001-0.121,0.096-0.22,0.216-0.221
								c0.078-0.001,7.783-0.164,9.124-6.918c0.023-0.119,0.133-0.198,0.257-0.173c0.119,0.024,0.195,0.14,0.172,0.257
								c-1.41,7.105-9.467,7.27-9.548,7.271C421.028,355.229,421.027,355.229,421.027,355.229z"/>
						</g>
						<path style="fill:#DC645A;" d="M423.8,351.074c-1.357,0-2.714-0.238-3.976-0.715c-1.066-0.404-1.688-0.935-1.9-1.627
							c-0.036-0.115,0.029-0.237,0.145-0.273c0.112-0.039,0.238,0.03,0.273,0.145c0.171,0.553,0.706,0.993,1.637,1.345
							c2.404,0.908,5.164,0.919,7.572,0.026c0.114-0.043,0.239,0.016,0.281,0.13c0.042,0.112-0.016,0.238-0.129,0.28
							C426.462,350.845,425.132,351.074,423.8,351.074z"/>
					</g>
					<path style="fill:#FAAF88;" d="M392.877,276.397c-0.132-0.638,3.623-3.228,4.08-3.8c1.545-1.924,0.878-4.526,0.878-6.808
						c0-1.52,0-3.04,0-4.563c1.014-1.885,2.03-3.772,3.043-5.659c0.833-1.552,1.753-3.084,2.512-4.674
						c0.403-0.837,1.216-3.75,2.575-2.095c0.308,0.376,0.406,0.883,0.406,1.37c0,2.52-0.222,5.08-0.222,7.631
						c0,2.991,0,5.982,0,8.977c0,2.009,0.482,4.358-0.37,6.263c-0.801,1.795-2.787,3.484-4.059,5.002
						c-2.267,2.708-4.535,5.416-6.802,8.127L392.877,276.397z"/>
					<path style="fill:#FFFFFF;" d="M364.58,254.518c0,0,7.731,3.064,10.94,28.297l17.354-8.169l3.212,12.983l-19.982,10.502
						c0,0-8.752,6.853-12.982-5.544C363.121,292.586,351.162,257.436,364.58,254.518z"/>
					<path style="fill:#FAAF88;" d="M417.526,276.397c0.132-0.638-3.622-3.228-4.08-3.8c-1.544-1.924-0.878-4.526-0.878-6.808
						c0-1.52,0-3.04,0-4.563c-1.015-1.885-2.027-3.772-3.042-5.659c-0.834-1.552-1.752-3.084-2.514-4.674
						c-0.4-0.837-1.216-3.75-2.573-2.095c-0.307,0.376-0.407,0.883-0.407,1.37c0.002,2.52,0.222,5.08,0.222,7.631
						c0,2.991,0,5.982,0,8.977c0,2.009-0.481,4.358,0.371,6.263c0.802,1.795,2.785,3.484,4.058,5.002
						c2.268,2.708,4.534,5.416,6.803,8.127L417.526,276.397z"/>
					<path style="fill:#FFFFFF;" d="M423.063,282.275c0,0-2.695-22.476-10.79-28.778l2.535,19.003
						c-0.109-0.03-0.219-0.053-0.331-0.073c-0.003,0.111-0.003,0.224,0,0.34c0,1.833,0.745,4.516-0.527,6.092
						c-2.201,2.733-5.486-0.99-7.241-2.352c0.406,3.97,0.614,8.767,2.735,12.219c2.032,3.31,6.191,6.328,10.192,4.623
						C424.105,291.442,424.733,286.375,423.063,282.275z"/>
					<path style="fill:#DC645A;" d="M405.779,273.258c-0.118,0-0.216-0.094-0.219-0.214l-0.466-18.521
						c-0.003-0.12,0.093-0.221,0.213-0.224c0.133,0.009,0.221,0.093,0.224,0.214l0.466,18.521c0.003,0.12-0.093,0.221-0.213,0.224
						C405.783,273.258,405.781,273.258,405.779,273.258z"/>
				</g>
				<g>
					<g>
						<g>
							<path style="fill:#ACB8E8;" d="M287.757,349.21c3.787,6.553,12.659,10.399,19.365,6.89c2.549-1.334,4.557-3.536,7.074-4.925
								c4.491-2.481,9.93-2.094,15.047-2.466c7.461-0.544,14.783-2.88,21.182-6.753c3.17-1.921,6.325-4.538,7.039-8.174
								c0.525-2.672-0.395-5.451-1.814-7.779c-2.88-4.715-7.783-7.992-13.079-9.568c-5.295-1.577-10.967-1.549-16.423-0.671
								c-1.144,0.184-2.317,0.418-3.281,1.061c-1.106,0.736-1.816,1.92-2.704,2.91c-3.545,3.941-9.504,4.371-14.801,4.166
								c-5.778-0.226-14.848-0.938-18.674,4.638C283.042,333.844,284.79,344.075,287.757,349.21z"/>
							<path style="fill:#FAAF88;" d="M335.377,289.608c0.305-2.472,0.44-4.977,0.461-7.466c0.017-2.041-0.044-4.097-0.341-6.118
								c-0.124-0.856-0.232-1.748-0.368-2.582c-0.08-0.51-1.123-2.326-1.11-2.464c-0.018,0.201-0.037,0.4-0.055,0.6
								c-0.08-0.469-0.68-0.709-1.128-0.55c-1.826,0.657-2.408,6.72-2.697,8.356c-0.557,3.113-1.018,6.621-0.027,9.697l1.382,18.815
								l7.844-2.386L335.377,289.608z"/>
							<path style="fill:#ED8077;" d="M331.494,305.512c0,0,3.891,1.198,7.047-3.197c0,0,4.577,8.291,0.311,10.539
								c0,0-5.798,4.537-14.112,0.815l-1.313-20.126l7.044-8.437L331.494,305.512z"/>
							<g>
								<path style="fill:#ED8077;" d="M329.366,309.176c-0.432-1.925-0.498-3.916-0.602-5.892
									c0.639-6.811,1.279-13.62,1.918-20.428c0.375-4.001,0.907-6.551-2.096-9.83c-0.655-0.714-8.824-8.277-8.904-8.153
									c-0.002,0.007-3.401,8.065-3.401,8.065c-5.98-5.08-11.231-11.233-11.231-11.233l-12.253,15.318l1.722,22.226
									c-0.942,0.472-1.851,1.023-2.748,1.578c-1.526,0.938-4.47,2.031-5.564,3.426c-0.823,1.05-0.953,3.532-1.479,4.957
									c-1.164,3.139-1.221,6.57-1.142,9.92c0.067,2.742,0.243,5.593,1.592,7.979c1.347,2.384,4.218,4.134,6.837,3.328
									c1.988-0.613,3.348-2.485,5.255-3.316c4.424-1.93,9.51,2.349,14.182,1.126c3.495-0.917,5.633-4.638,9.049-5.817
									c2.606-0.901,5.529-0.175,8.193-0.883c0.914-0.242,1.833-0.697,2.326-1.505c0.327-0.54,0.435-1.182,0.465-1.812
									C331.628,315.12,330.047,312.217,329.366,309.176z"/>
								<path style="fill:#FAAF88;" d="M331.242,241.844c0-0.917-0.008-1.858-0.353-2.706c-0.172-0.426-0.469-0.761-0.857-1.016
									c-2.05-1.359-6.602-0.596-8.574-0.325c-3.354,0.463-6.715,1.716-8.87,4.453c-0.817,1.034-1.37,2.198-1.717,3.422
									c-1.153-1.35-2.617-2.069-3.859-0.374c-0.324,0.442-0.45,1.001-0.492,1.549c-0.085,1.095,0.141,2.187,0.393,3.256
									c0.208,0.888,0.442,1.795,0.969,2.539c0.935,1.318,2.075,1.396,3.029,0.845c1.567,4.01,5.122,7.992,8.833,10.1
									c1.837,1.041,4.097,1.757,6.155,0.92c3.715-1.513,4.127-8.873,4.986-12.182C331.749,249.015,331.251,245.24,331.242,241.844
									z"/>
								<g>
									<path style="fill:#FAAF88;" d="M320.583,260.907l-10.282-13.386c-0.575,8.079-5.251,14.186-5.251,14.186l0.131,0.142
										l-0.127,0.033c0.072,0.817,0.992,4.484,10.933,11.494C319.49,268.124,320.583,260.907,320.583,260.907z"/>
									<path style="fill:#FAAF88;" d="M305.05,261.706l-0.547,0.33l0.552-0.154C305.041,261.767,305.05,261.706,305.05,261.706z"
										/>
								</g>
								<path style="fill:#FAAF88;" d="M303.627,303.713l15.32-12.58c0.548-2.582,1.074-5.167,1.64-7.745
									c0.399-1.806,1.185-3.483,2.152-5.052c0.481-0.777,1.005-1.522,1.539-2.262c0.622-0.857,0.625-1.375,0.998-2.226
									c0.114-0.264,0.419-0.472,0.691-0.377c0.274,0.095,0.377,0.429,0.406,0.715c0.075,0.742-0.351,2.642-0.758,3.274
									c0.743-1.154,1.505-2.299,2.281-3.434c0.628-0.922,1.265-1.837,1.927-2.733c0.303-0.413,0.979-1.631,1.581-1.591
									c0.652,0.042,0.913,1.759,0.556,2.177c1.701-2,1.602-0.135,1.601,1.491c0-0.329,0.57-0.169,0.707-0.064
									c0.379,0.282-0.006,0.733-0.057,1.079c-0.112,0.739-0.363,1.486-0.559,2.205c-0.549,2.024-1.191,4.026-1.94,5.986
									c-1.685,4.395-3.956,9.086-7.737,12.059l-15.8,17.393L303.627,303.713z"/>
								<path style="fill:#ED8077;" d="M298.487,303.278c0,0-4.665-11.269-2.332-23.63l8.899-6.273l0.135-12.252
									c-4.349,2.079-8.726,4.113-13.048,6.244c-7.68,3.784-9.153,15.605-9.181,23.272c-0.035,9.298,3.064,18.482,9.181,25.545
									c0,0,4.814,3.939,17.284-5.031l-4.371-10.939L298.487,303.278z"/>
								<path style="fill:#CD5C54;" d="M298.382,303.568l-0.093-0.198c-1.748-3.709-2.95-15.334-3-15.827l0.435-0.045
									c0.012,0.117,1.202,11.629,2.871,15.487l6.367-2.97l0.185,0.395L298.382,303.568z"/>
								<path style="fill:#CD5C54;" d="M294.81,317.381c-0.899,0-1.406-0.106-1.476-0.122l-0.096-0.049
									c-0.053-0.046-5.286-4.687-7.818-11.622l0.411-0.151c2.37,6.492,7.145,10.945,7.651,11.405
									c0.623,0.109,6.651,0.924,15.813-5.864l0.261,0.351C302.415,316.619,297.213,317.381,294.81,317.381z"/>
								<path style="fill:#623B41;" d="M312.742,244.468c-0.119,0.229-0.221,0.463-0.295,0.705L312.742,244.468z"/>
								<path style="fill:#623B41;" d="M332.637,235.284c0.104-1.647-0.756-3.321-2.154-4.196c-0.658-0.41-1.436-0.67-1.943-1.255
									c-0.408-0.469-0.587-1.092-0.904-1.628c-1.088-1.847-3.499-2.323-5.621-2.618c-2.941-0.408-6.211-0.74-8.619,0.996
									c-0.654,0.469-1.212,1.076-1.929,1.442c-0.649,0.331-1.383,0.442-2.076,0.667c-2.565,0.829-4.481,3.365-4.579,6.06
									c-3.52,0.246-6.058,4.565-4.56,7.762c-2.42,3.026-1.489,8.12,1.843,10.098c-0.011-0.006,0.342,4.229,0.485,4.702
									c0.263,0.87,0.42,2.009,1.147,2.62c2.223,1.871,4.931-3.074,5.796-4.582c0.874-1.518-0.902-2.171-1.675-3.383
									c-0.895-1.405-1.349-3.101-1.22-4.765c0.071-0.882,0.349-1.836,1.094-2.314c0.872-0.558,2.086-0.234,2.845,0.471
									c0.05,0.047,0.1,0.096,0.148,0.148c0.231,0.516,0.398,1.072,0.612,1.601c0.344,0.862,0.929,1.742,1.835,1.955
									c-0.426-0.939-0.859-1.969-0.621-2.969c0.303-1.264,1.547-2.033,2.337-3.063c0.787-1.031,0.878-2.079,0.899-3.311
									c2.583,0.24,5.198,0.467,7.787,0.739c1.478,0.156,2.96,0.393,4.38,0.845c1.004,0.321,2.935,1.835,3.918,1.302
									c0.797-0.427,0.739-1.725,0.817-2.514C332.838,238.491,332.538,236.887,332.637,235.284z"/>
							</g>
							<path style="fill:#CD5C54;" d="M330.47,313.072c-0.082,0-0.161-0.046-0.198-0.125c-2.147-4.539-1.685-8.762-1.68-8.806
								l1.071-12.383c0.01-0.12,0.1-0.225,0.237-0.199c0.12,0.01,0.209,0.116,0.199,0.236l-1.071,12.391
								c-0.006,0.048-0.452,4.154,1.639,8.573c0.052,0.11,0.005,0.24-0.104,0.292C330.533,313.065,330.501,313.072,330.47,313.072z"
								/>
							<path style="fill:#CD5C54;" d="M330.491,285.744c-0.035,0-0.069-0.008-0.101-0.025c-0.107-0.055-0.148-0.188-0.093-0.295
								c2.011-3.846,3.684-11.017,3.7-11.089c0.028-0.117,0.144-0.191,0.263-0.164c0.117,0.028,0.191,0.146,0.164,0.263
								c-0.017,0.073-1.703,7.297-3.739,11.192C330.646,285.702,330.57,285.744,330.491,285.744z"/>
						</g>
						<g>
							<path style="fill:#FAAF88;" d="M338.961,352.548c-0.089-0.065-0.189-0.125-0.288-0.175c0.211,0.032,0.425,0.056,0.641,0.059
								c0.487,0.01,1.073-0.129,1.229-0.592c0.137-0.404-0.145-0.835-0.488-1.094c-0.104-0.08-0.217-0.145-0.337-0.204
								c0.316-0.002,0.631-0.038,0.94-0.105c0.475-0.106,1.012-0.382,1.053-0.867c0.037-0.426-0.339-0.778-0.731-0.948
								c-0.398-0.174-0.873-0.209-1.32-0.136c0.013-0.125,0.02-0.247,0.025-0.369c0.439-0.004,0.88-0.053,1.312-0.15
								c0.655-0.144,1.392-0.524,1.45-1.191c0.05-0.584-0.467-1.071-1.007-1.305c-0.776-0.334-1.76-0.3-2.536,0.009
								c-0.128,0.052-0.279,0.135-0.435,0.238c-2.464-1.649-5.256-0.297-7.958-0.216c-2.099,0.061-4.906-0.13-6.842-0.909
								c-1.331-0.537-2.109-1.615-3.429-2.156c-2.853-1.166-6.142-0.477-7.04,2.787c-0.892,3.243,3.385,4.007,5.421,4.719
								c2.97,1.043,5.655,2.701,8.482,4.049c2.399,1.143,4.914,1.716,7.084,1.26c0.083,0.036,0.169,0.065,0.254,0.091
								c0.461,0.132,0.942,0.197,1.419,0.184c0.491-0.01,1.067-0.179,1.202-0.646c0.087-0.302-0.052-0.607-0.271-0.843
								c0.02-0.015,0.036-0.026,0.057-0.043c0.44,0.148,0.903,0.23,1.368,0.237c0.488,0.012,1.074-0.13,1.231-0.591
								C339.583,353.239,339.301,352.806,338.961,352.548z"/>
							<path style="fill:#DC645A;" d="M335.394,354.111c-0.049,0-0.097-0.023-0.126-0.067c-0.046-0.07-0.027-0.164,0.043-0.21
								c4.568-3.021,3.092-6.888,3.027-7.051c-0.031-0.077,0.007-0.164,0.084-0.196c0.078-0.031,0.166,0.007,0.196,0.084
								c0.017,0.043,1.638,4.255-3.141,7.415C335.451,354.104,335.423,354.111,335.394,354.111z"/>
							<path style="fill:#DC645A;" d="M334.323,351.181c-1.171,0-2.738-0.372-4.782-1.526c-0.073-0.042-0.099-0.133-0.057-0.206
								c0.041-0.074,0.133-0.096,0.206-0.058c5.384,3.039,7.302,0.432,7.32,0.407c0.047-0.068,0.143-0.084,0.211-0.037
								c0.068,0.048,0.085,0.142,0.036,0.21C337.203,350.045,336.368,351.181,334.323,351.181z"/>
						</g>
						<path style="fill:#8C9ED1;" d="M315.809,338.104c-0.048,0-0.097-0.016-0.137-0.048c-0.094-0.076-0.109-0.214-0.033-0.308
							c0.087-0.107,8.764-10.712,21.483-11.364c0.123,0.005,0.224,0.087,0.23,0.208s-0.087,0.224-0.208,0.23
							c-12.519,0.642-21.079,11.096-21.164,11.201C315.936,338.076,315.872,338.104,315.809,338.104z"/>
					</g>
					<g>
						<path style="fill:#623B41;" d="M320.205,244.775c0.817-0.051,1.623,0.188,2.407,0.426c0.872,0.263,1.748,0.529,2.62,0.789
							c-0.893,0.264-1.833,0.363-2.761,0.292c0.32,0.064,0.639,0.129,0.96,0.197c-0.715,0.106-1.439,0.216-2.155,0.12
							c-0.681-0.09-1.332-0.358-2.017-0.403c-0.868-0.059-1.719,0.244-2.574,0.279C316.963,245.494,319.254,244.834,320.205,244.775
							z"/>
						<path style="fill:#623B41;" d="M330.45,245.286c-0.496-0.067-0.994,0.158-1.478,0.378c-0.543,0.245-1.084,0.492-1.624,0.739
							c0.536,0.277,1.105,0.395,1.672,0.345c-0.198,0.058-0.394,0.116-0.591,0.174c0.431,0.122,0.868,0.245,1.307,0.166
							c0.419-0.074,0.824-0.331,1.24-0.363c0.532-0.04,1.038,0.279,1.558,0.334C332.398,246.071,331.026,245.363,330.45,245.286z"/>
						<path style="fill:#DC645A;" d="M327.154,254.358h-1.361c-0.103,0-0.186-0.084-0.186-0.186c0-0.103,0.083-0.187,0.186-0.187
							h1.361c0.363,0,0.713-0.154,0.959-0.424c0.248-0.271,0.366-0.62,0.333-0.985c-0.212-2.308-1.181-4.125-1.191-4.144
							c-0.049-0.09-0.015-0.204,0.075-0.252c0.09-0.047,0.202-0.015,0.252,0.075c0.041,0.077,1.014,1.9,1.234,4.287
							c0.041,0.462-0.115,0.925-0.43,1.269C328.07,254.16,327.621,254.358,327.154,254.358z"/>
						<path style="fill:#DC645A;" d="M324.898,258.159c-1.022,0-2.344-0.324-3.975-1.338c-0.087-0.054-0.114-0.169-0.06-0.257
							c0.055-0.085,0.172-0.11,0.257-0.059c4.115,2.561,6.08,0.505,6.163,0.415c0.068-0.074,0.186-0.079,0.263-0.011
							c0.075,0.069,0.081,0.186,0.012,0.262C327.501,257.232,326.629,258.159,324.898,258.159z"/>
						<path style="fill:#623B41;" d="M321.826,248.768c0.006,0.42-0.343,0.768-0.778,0.777c-0.432,0.006-0.796-0.33-0.801-0.746
							l-0.035-1.827c-0.006-0.419,0.345-0.769,0.779-0.773c0.434-0.01,0.794,0.327,0.804,0.746L321.826,248.768z"/>
						<path style="fill:#623B41;" d="M330.213,249.325c-0.038,0.415-0.421,0.727-0.855,0.685c-0.431-0.037-0.754-0.411-0.718-0.825
							l0.164-1.82c0.038-0.418,0.421-0.724,0.855-0.687c0.434,0.038,0.759,0.41,0.72,0.829L330.213,249.325z"/>
					</g>
					<path style="fill:#DC645A;" d="M321.124,264.477c-0.113-0.021-6.205-1.577-9.6-9.134c-0.049-0.111-0.001-0.24,0.11-0.29
						c0.11-0.045,0.239,0,0.289,0.11c3.309,7.365,9.194,8.868,9.253,8.883c0.118,0.028,0.19,0.147,0.161,0.264
						C321.312,264.41,321.223,264.477,321.124,264.477z"/>
					<path style="fill:#DC645A;" d="M310.849,251.476c-0.111,0-0.206-0.084-0.217-0.196c-0.004-0.032-0.338-3.209-1.995-4.47
						c-0.096-0.073-0.115-0.211-0.042-0.306c0.074-0.098,0.211-0.116,0.306-0.042c1.81,1.378,2.152,4.637,2.165,4.775
						c0.012,0.12-0.075,0.227-0.196,0.238C310.863,251.476,310.856,251.476,310.849,251.476z"/>
					<path style="fill:#DC645A;" d="M310.297,249.166c-0.023,0-0.048-0.004-0.071-0.012l-1.748-0.602
						c-0.114-0.04-0.175-0.164-0.136-0.278c0.04-0.114,0.164-0.175,0.278-0.136l1.748,0.603c0.114,0.04,0.175,0.163,0.136,0.277
						C310.473,249.109,310.388,249.166,310.297,249.166z"/>
				</g>
				<g>
					<g>
						<g>
							<path style="fill:#FAAF88;" d="M234.105,347.806c-1.889,2.653-4.28,5.245-7.457,5.972c-0.635,0.145-1.293,0.21-1.903,0.441
								c-1.793,0.674-3.002,2.666-4.907,2.856c-1.641,0.163-3.105-1.154-3.818-2.64c-3.342-6.982,4.692-11.131,10.186-12.48
								c2.773-0.684,7.038-2.502,9.755-2.404C240.743,339.723,235.88,345.317,234.105,347.806z"/>
							<g>
								<path style="fill:#CA9B6A;" d="M134.138,366.65c5.117,6.688,14.956,9.783,23.32,7.58c6.347-1.673,12.378-4.398,18.834-5.681
									c9.425-1.875,19.209-0.61,28.741-1.853c5.23-0.681,10.74-2.37,13.938-6.565c0.943-1.242,1.652-2.661,2.711-3.805
									c5.482-5.908,13.291-9.688,11.089-19.422c-2.474-10.922-15.901-12.669-25.236-13.721c-5.274-0.593-10.404,0.219-15.574-0.73
									c-5.566-1.028-11.407-0.261-16.774,1.509c-4.279,1.411-6.908,3.829-10.689,6.237c-5.163,3.289-10.831,4.455-16.808,5.388
									c-4.101,0.641-10.729,0.624-14.11,3.4c-5.382,4.422-3.82,14.95-2.568,20.903
									C131.543,362.422,132.637,364.691,134.138,366.65z"/>
								<path style="fill:#FAAF88;" d="M168.788,244.967l-1.896,11.813c0,0,4.667,8.025,3.355,21.294l-18.816-29.609
									c0,0,1.938-7.229,2.772-16.773l13.273,3.501L168.788,244.967z"/>
								<path style="fill:#FAAF88;" d="M180.335,217.201c-1.024-2.194-2.753-3.947-5.198-4.512l-3.33-0.768
									c-1.353-0.311-2.764-0.252-4.084,0.179c-4.048,1.323-10.468,5.031-11.259,16.021c-1.04-3.269-4.543-6.108-5.974-4.384
									c-0.268,0.321-0.342,0.759-0.384,1.176c-0.224,2.338,0.067,6.376,1.405,8.406c0.952,1.447,2.6,2.183,3.609,0.907
									c0.655,2.854,3.292,10.628,12.73,12.81c2.895,0.67,5.921-0.432,7.726-2.792c2.499-3.262,3.856-7.215,4.101-11.358
									c0.071-1.223-0.07-2.462,0.166-3.663c0.249-1.27,0.905-2.429,1.242-3.681C181.777,222.953,181.537,219.775,180.335,217.201z
									"/>
								<path style="fill:#FAAF88;" d="M199.873,302.664l-9.222,6.455c-0.62-3.637-1.235-7.279-1.855-10.917
									c-0.667-3.919-1.417-7.848-1.911-11.783c-0.751-6.028,1.116-11.407,2.412-17.224c0.71-3.199,1.416-6.396,2.129-9.594
									c0.199-0.895,0.238-2.697,0.938-3.404c0.707-0.719,1.248-0.85,1.661-0.614c1.22,0.694,1.358,4.547,1.602,5.803
									c0.438,2.256,0.88,4.513,1.311,6.771c-0.39,2.568-0.78,5.141-1.171,7.713c-0.642,4.222-1.934,7.811-0.589,11.925
									c0.938,2.869,1.737,5.791,2.603,8.681C197.921,296.948,198.909,299.755,199.873,302.664z"/>
								<path style="fill:#ACB8E8;" d="M190.412,303.094l8.21-4.134l2.837,7.558c0,0,3.355,15.024-16.919,9.99l-7.146-2.698
									l1.603-12.92l10.095-6.6L190.412,303.094z"/>
								<g>
									<path style="fill:#ACB8E8;" d="M189.064,292.663l-6.084-31.307l-15.026-11.192l-1.062,6.617
										c2.201,2.918,3.542,18.702,3.542,18.702l-18.127-28.253l-17.503,34.931c2.654,8.294,2.649,17.532,2.53,26.149
										c-0.054,3.886,0.707,7.388-0.232,11.171c-0.696,2.794-1.19,5.64-2.014,8.401c-1.046,3.498-3.652,6.63-2.913,10.494
										c1.31,6.829,13.174,6.18,17.864,4.386c4.212-1.609,8.42-3.22,12.63-4.826c3.067-1.173,6.276-1.935,9.361-3.065
										c3.345-1.225,7.633-2.788,8.548-6.455c1.098-4.4-0.259-9.501-0.446-13.949c-0.159-3.907,0.668-7.65,1.054-11.521
										C190.32,300.055,189.064,292.663,189.064,292.663z"/>
									<path style="fill:#ACB8E8;" d="M180.346,311.881c-0.004-0.135-0.008-0.268-0.012-0.401l-0.023,0.215L180.346,311.881z"/>
								</g>
								<path style="fill:#ACB8E8;" d="M152.307,247.228c-4.142,1.746-8.252,3.586-12.284,5.567
									c-5.562,2.735-10.742,8.19-11.753,14.359c-0.872,5.322-0.371,10.834,0.625,16.098c0,0,9.628,35.004,17.505,42.664
									c0,0,1.092,8.092,18.596-7.439l-6.345-20.128l-3.645,2.539l-4.968-28.136L152.307,247.228z"/>
								<path style="fill:#7992D9;" d="M149.509,327.618c-0.435,0-0.883-0.046-1.331-0.156c-1.43-0.35-2.595-1.281-3.461-2.771
									c-0.107-0.179-10.882-18.378-14.019-34.677c-0.031-0.163,0.075-0.32,0.238-0.351c0.159-0.029,0.32,0.075,0.352,0.237
									c3.116,16.195,13.839,34.305,13.947,34.486c0.782,1.344,1.819,2.182,3.083,2.492c2.459,0.602,5.013-0.982,5.038-0.998
									c4.479-1.5,8.687-4.773,11.441-7.258c0.122-0.112,0.311-0.103,0.423,0.021c0.111,0.124,0.101,0.313-0.022,0.424
									c-2.796,2.525-7.076,5.85-11.588,7.351C153.57,326.452,151.702,327.618,149.509,327.618z"/>
								<path style="fill:#FAAF88;" d="M159.168,299.988l19.174-20.455v-10.877c0-0.888,0.298-1.756,0.846-2.457l9.028-11.531
									c1.009-1.292,2.944-1.354,4.037-0.131c0.206,0.23,0.368,0.495,0.482,0.781l1.446,3.638c0.227,0.573,0.245,1.207,0.054,1.793
									l-4.736,14.411l-1.785,8.93c-0.12,0.602-0.374,1.17-0.738,1.662l-22.856,30.757L159.168,299.988z"/>
								<path style="fill:#623B41;" d="M162.776,223.062c-1.785,2.619-3.672,5.043-6.819,6.18c-0.201-1.496-0.844-2.931-1.832-4.071
									c-1.495-1.736-3.819-1.474-3.938,1.013c-0.087,1.832-0.168,3.719,0.442,5.45c0.606,1.728,2.078,3.286,3.907,3.428
									c-0.62,3.269-1.238,6.537-1.856,9.805c-0.133,0.709-0.274,1.441-0.668,2.045c-0.425,0.651-1.1,1.092-1.768,1.49
									c-5.111,3.029-11.203,4.637-15.354,8.888c-5.264,5.39-6.081,13.6-6.431,21.124c-3.27-0.888-6.247-3.012-7.89-5.982
									c-1.641-2.963-1.835-6.762-0.237-9.751c1.232-2.305,3.356-3.97,5.263-5.757c5.763-5.4,9.93-12.486,11.843-20.148
									c2.077-8.31,1.632-17.406,5.749-24.917c3.438-6.27,10.001-10.72,17.099-11.592c7.097-0.87,14.544,1.858,19.397,7.11
									c1.578,1.705,3.434,4.571,1.981,6.928c-1.321,2.141-3.492,1.023-5.604,0.871c-2.462-0.178-4.862,0.436-6.916,1.803
									c-1.967,1.307-4.035,2.618-5.379,4.615C163.433,222.085,163.108,222.577,162.776,223.062z"/>
								<path style="fill:#7992D9;" d="M164.997,318.778c-0.127,0-0.246-0.082-0.286-0.21l-6.223-19.738l-3.311,2.305
									c-0.083,0.059-0.191,0.073-0.286,0.031c-0.094-0.04-0.162-0.124-0.18-0.225l-4.485-25.408
									c-0.029-0.163,0.08-0.319,0.243-0.347c0.159-0.036,0.318,0.08,0.347,0.243l4.404,24.946l3.26-2.271
									c0.078-0.056,0.179-0.067,0.268-0.038c0.09,0.031,0.16,0.103,0.189,0.194l6.346,20.128c0.05,0.158-0.038,0.326-0.196,0.376
									C165.057,318.773,165.026,318.778,164.997,318.778z"/>
								<path style="fill:#7992D9;" d="M180.346,319.323c-0.161,0-0.295-0.128-0.3-0.29l-0.211-6.671l1.051-9.45
									c0.014-0.121,0.099-0.222,0.217-0.256c8.488-2.387,7.672-9.881,7.663-9.958l-1.125-5.793
									c-0.032-0.162,0.074-0.32,0.237-0.351c0.161-0.032,0.32,0.074,0.351,0.237l1.129,5.814c0.014,0.1,0.874,7.987-7.898,10.572
									l-1.027,9.208l0.213,6.627c0.005,0.166-0.125,0.304-0.29,0.31C180.352,319.323,180.349,319.323,180.346,319.323z"/>
							</g>
							<path style="fill:#FAAF88;" d="M211.39,363.58c-0.158-0.037-0.322-0.058-0.487-0.072c0.301-0.074,0.6-0.168,0.89-0.283
								c0.653-0.264,1.355-0.783,1.3-1.488c-0.049-0.617-0.67-1.03-1.27-1.179c-0.182-0.045-0.373-0.068-0.564-0.078
								c0.416-0.187,0.817-0.409,1.191-0.678c0.573-0.41,1.129-1.077,0.909-1.748c-0.192-0.586-0.892-0.844-1.51-0.848
								c-0.628-0.004-1.283,0.219-1.834,0.568c-0.054-0.171-0.114-0.341-0.178-0.503c0.583-0.258,1.144-0.574,1.663-0.948
								c0.789-0.563,1.555-1.485,1.254-2.407c-0.266-0.807-1.231-1.16-2.081-1.164c-1.222-0.004-2.515,0.597-3.374,1.45
								c-0.141,0.142-0.295,0.339-0.44,0.567c-4.217-0.797-7.164,2.587-10.718,4.23c-2.76,1.274-6.6,2.611-9.622,2.675
								c-2.074,0.039-3.724-0.956-5.786-0.922c-4.463,0.065-8.445,2.851-7.788,7.706c0.652,4.821,6.777,3.413,9.895,3.204
								c4.543-0.3,9.059,0.382,13.589,0.571c3.842,0.161,7.514-0.507,10.148-2.344c0.129-0.004,0.258-0.01,0.385-0.026
								c0.689-0.083,1.367-0.273,1.997-0.561c0.644-0.292,1.318-0.841,1.234-1.541c-0.059-0.451-0.416-0.776-0.839-0.969
								c0.015-0.027,0.033-0.057,0.05-0.089c0.668-0.056,1.332-0.209,1.954-0.46c0.656-0.264,1.355-0.783,1.3-1.486
								C212.611,364.143,211.99,363.731,211.39,363.58z"/>
							<path style="fill:#905A38;" d="M173.124,361.893l-0.366-0.24c5.393-8.23,11.507-17.557,20.089-23.751
								c3.97-2.864,8.365-5.011,13.061-6.382l0.122,0.42c-4.648,1.357-8.997,3.483-12.928,6.318
								C184.587,344.404,178.498,353.696,173.124,361.893z"/>
							<path style="fill:#905A38;" d="M166.397,342.265l-0.187-0.395c6.852-3.239,14.684-4.051,22.057-2.28l-0.103,0.425
								C180.893,338.268,173.16,339.069,166.397,342.265z"/>
							<path style="fill:#DC645A;" d="M187.714,284.308c-0.156-0.023-0.236-0.137-0.216-0.256l1.816-10.462l4.715-12.917
								c0.042-0.114,0.165-0.175,0.281-0.13c0.113,0.041,0.172,0.167,0.131,0.28l-4.705,12.879l-1.806,10.424
								C187.911,284.233,187.818,284.308,187.714,284.308z"/>
							<path style="fill:#DC645A;" d="M168.424,247.448c-0.099-0.009-8.006-0.823-12.164-9.342
								c-0.053-0.107-0.008-0.238,0.101-0.293c0.108-0.054,0.239-0.007,0.292,0.101c4.051,8.299,11.714,9.088,11.79,9.096
								c0.12,0.011,0.209,0.117,0.198,0.237C168.632,247.362,168.536,247.448,168.424,247.448z"/>
							<path style="fill:#DC645A;" d="M207.44,367.704c-0.041,0-0.083-0.011-0.12-0.036c-0.101-0.067-0.128-0.202-0.062-0.304
								c4.373-6.628,0.072-11.059,0.028-11.103c-0.085-0.085-0.085-0.224,0.001-0.309c0.085-0.087,0.223-0.087,0.309,0
								c0.046,0.046,4.594,4.731,0.028,11.654C207.581,367.669,207.511,367.704,207.44,367.704z"/>
							<path style="fill:#DC645A;" d="M199.679,365.223c-0.752,0-1.574-0.044-2.472-0.145c-0.12-0.014-0.207-0.121-0.193-0.242
								c0.013-0.12,0.121-0.219,0.242-0.193c8.85,0.973,9.961-3.577,9.972-3.621c0.026-0.117,0.139-0.193,0.26-0.168
								c0.117,0.026,0.193,0.141,0.167,0.259C207.615,361.298,206.692,365.223,199.679,365.223z"/>
						</g>
						<path style="fill:#623B41;" d="M167.404,223.964c0.946-0.185,1.921-0.027,2.873,0.13c1.058,0.174,2.12,0.35,3.178,0.524
							c-1.001,0.441-2.083,0.701-3.176,0.76c0.382,0.025,0.765,0.052,1.145,0.08c-0.816,0.234-1.642,0.471-2.49,0.471
							c-0.809-0.003-1.61-0.216-2.417-0.164c-1.021,0.067-1.966,0.55-2.96,0.72C163.734,225.298,166.306,224.175,167.404,223.964z"
							/>
						<path style="fill:#623B41;" d="M180.434,224.368c-0.555-0.203-1.183-0.073-1.794,0.059c-0.682,0.145-1.368,0.289-2.052,0.434
							c0.545,0.457,1.167,0.736,1.833,0.823c-0.241,0.015-0.481,0.033-0.72,0.049c0.462,0.251,0.933,0.501,1.457,0.521
							c0.497,0.02,1.029-0.172,1.519-0.099c0.617,0.089,1.12,0.586,1.703,0.775C182.472,225.763,181.075,224.602,180.434,224.368z"
							/>
					</g>
					<path style="fill:#DC645A;" d="M175.712,236.551h-1.601c-0.121,0-0.219-0.097-0.219-0.219c0-0.121,0.098-0.219,0.219-0.219
						h1.601c0.43,0,0.843-0.183,1.132-0.499c0.29-0.319,0.428-0.729,0.389-1.157c-0.247-2.72-1.389-4.858-1.4-4.88
						c-0.058-0.106-0.018-0.238,0.089-0.296c0.104-0.056,0.238-0.017,0.296,0.089c0.048,0.09,1.195,2.239,1.451,5.048
						c0.05,0.541-0.132,1.085-0.501,1.49C176.795,236.316,176.265,236.551,175.712,236.551z"/>
					<path style="fill:#DC645A;" d="M173.061,241.023c-1.203,0-2.758-0.381-4.677-1.575c-0.102-0.064-0.134-0.199-0.07-0.301
						c0.064-0.104,0.198-0.133,0.301-0.07c4.838,3.013,7.15,0.596,7.248,0.493c0.081-0.089,0.219-0.096,0.309-0.015
						c0.089,0.081,0.095,0.22,0.014,0.309C176.121,239.935,175.095,241.023,173.061,241.023z"/>
					<path style="fill:#623B41;" d="M169.446,229.978c0.008,0.491-0.403,0.9-0.914,0.908c-0.512,0.011-0.937-0.385-0.946-0.877
						l-0.038-2.148c-0.008-0.492,0.403-0.902,0.915-0.909c0.513-0.009,0.935,0.385,0.944,0.877L169.446,229.978z"/>
					<path style="fill:#623B41;" d="M179.313,230.628c-0.044,0.492-0.495,0.855-1.004,0.811c-0.511-0.047-0.89-0.487-0.846-0.976
						l0.193-2.139c0.044-0.49,0.495-0.854,1.006-0.809c0.511,0.047,0.891,0.487,0.847,0.976L179.313,230.628z"/>
					<path style="fill:#DC645A;" d="M153.911,230.672c-0.109,0-0.203-0.08-0.217-0.192c-0.005-0.036-0.487-3.666-1.859-4.425
						c-0.106-0.058-0.145-0.19-0.086-0.297c0.059-0.106,0.191-0.146,0.297-0.087c1.565,0.867,2.061,4.596,2.081,4.754
						c0.015,0.119-0.069,0.229-0.189,0.245C153.93,230.67,153.921,230.672,153.911,230.672z"/>
					<path style="fill:#DC645A;" d="M153.606,229.137c-0.03,0-0.061-0.006-0.091-0.02l-1.665-0.759
						c-0.11-0.051-0.158-0.179-0.108-0.29c0.05-0.109,0.18-0.158,0.29-0.107l1.665,0.759c0.11,0.051,0.158,0.179,0.108,0.29
						C153.769,229.089,153.689,229.137,153.606,229.137z"/>
				</g>
			</g>
			<g>
				<g>
					<path style="fill:#EFDBCC;" d="M336.628,369.243c-6.357-0.147-29.635-0.958-38.859-5.01c0,0,9.256,13.959,38.859,13.531
						c29.602,0.428,38.29-13.938,38.29-13.938C365.694,367.881,342.984,369.096,336.628,369.243z"/>
					<path style="fill:#FFF3EB;" d="M375.038,363.603c0,3.199-17.333,5.792-38.716,5.792c-21.382,0-38.716-2.593-38.716-5.792
						c0-3.2,17.334-5.793,38.716-5.793C357.705,357.81,375.038,360.403,375.038,363.603z"/>
					<path style="fill:#C9A287;" d="M336.322,367.446c-19.321,0-32.653-2.116-36.149-3.842c3.497-1.726,16.828-3.842,36.149-3.842
						c19.323,0,32.653,2.116,36.149,3.842C368.975,365.329,355.645,367.446,336.322,367.446z"/>
				</g>
				<path style="fill:#B6D389;" d="M350.319,359.612c-0.75,2.492-2.975,4.492-5.726,5.305c-1.121,0.332-2.298,0.551-3.288,1.102
					c-0.682,0.377-1.268,0.87-1.815,1.406c-0.878,0.011-1.775,0.021-2.682,0.021h-0.482c-0.82,0-1.63-0.006-2.43-0.01
					c-2.775-0.031-5.419-0.099-7.911-0.206c-2.009-3.068-2.239-7.015-2.668-10.614c-0.117-0.976-0.405-2.15-0.62-3.331
					c-0.531-2.867-0.644-5.786,3.165-5.996c3.381-0.188,6.165,2.665,9.663,2.801c4.419,0.171,11.564-0.448,14.125,4.18
					C350.679,356.134,350.816,357.977,350.319,359.612z"/>
				<path style="fill:#ED8077;" d="M334.335,365.957c-0.098,0.483-0.249,0.981-0.439,1.479c-2.775-0.031-5.419-0.099-7.911-0.206
					c-6.8-0.283-12.516-0.84-16.891-1.493c-0.093-0.566-0.156-1.117-0.21-1.61c-0.395-3.594,0.523-6.989,4.092-8.438
					c1.781-0.72,3.488-0.868,5.352-0.882c0.439-0.089,0.878-0.18,1.312-0.312c1.033-0.306,2.02-0.834,3.058-1.21
					c0.562-0.201,1.132-0.356,1.737-0.414c2.952-0.274,5.531,0.528,7.175,3.008C333.408,358.597,335.023,362.65,334.335,365.957z"/>
				<path style="fill:#FFD580;" d="M356.776,366.552c-4.872,0.462-10.691,0.791-17.286,0.872c-0.878,0.011-1.775,0.021-2.682,0.021
					c1.693-1.133,3.644-1.836,5.477-2.688c2.883-1.342,5.814-2.889,8.034-5.146c0.274-0.278,0.537-0.566,0.786-0.864
					c1.951-2.346,2.761-6.185,5.633-7.601c1.073-0.53,2.098-0.487,2.976-0.081c0.087-1.069,0.497-2.146,0.429-3.216
					c1.458-0.229,1.448,0.84,1.316,2.036c-0.044,0.374-0.356,1.238-0.707,1.877c0.78,0.726,1.345,1.772,1.58,2.897
					C363.415,359.918,360.674,363.811,356.776,366.552z"/>
			</g>
			<g>
				<path style="fill:#FFFFFF;" d="M365.752,364.793c-2.001-1.682-4.234-2.251-6.003-2.413c-2.123-0.196-4.06,1.595-6.171,1.295
					c1.759,1.935,4.14,4.39,6.865,4.763c1.27,0.174,2.298,0.006,3.208-0.915c0.783-0.792,0.968-2.241,2.123-2.718L365.752,364.793z"
					/>
				<path style="fill:#FFFFFF;" d="M365.305,365.105c-0.028-0.965-3.303-1.851-3.923-2.754c-0.847-1.233-1.206-2.577-0.823-4.026
					c0.373-1.406,0.805-2.441,0.295-3.836c1.544,1.773,4.658,2.743,5.458,5.147c0.535,1.605-0.544,3.51-0.925,5.014L365.305,365.105
					z"/>
				<path style="fill:#FFFFFF;" d="M364.946,365.913c0.772-1.518,0.412-5.199,1.028-6.8c0.5-1.302,1.379-2.027,2.549-2.795
					c0.796-0.523,1.659-0.921,2.462-1.434c0.375-0.243,0.873-0.712,1.25-0.794c0.452,2.681,1.125,6.841-1.609,8.582
					c-1.785,1.137-3.913,3.178-5.746,3.206L364.946,365.913z"/>
				<path style="fill:#FFFFFF;" d="M365.293,364.514c-0.581,1.476-3.271,2.501-4.246,3.772c-1.606,2.099-0.681,4.951-1.208,7.266
					c0.465,0.074,1.197-0.435,1.72-0.571c0.861-0.225,1.742-0.23,2.541-0.667c1.675-0.912,3.033-1.757,3.473-3.704
					c0.271-1.201-0.751-4.923-2.395-6.117L365.293,364.514z"/>
				<path style="fill:#FFFFFF;" d="M366.212,365.81c1.014,1.908,0.075,4.147,1.042,6.216c0.5,1.067,1.768,1.767,2.709,2.397
					c1.31,0.881,2.18,1.785,3.232,2.94c0.73-1.518,0.271-3.787,0.038-5.387c-0.286-1.959-0.877-3.32-2.323-4.717
					c-0.669-0.647-1.188-1.082-2.11-1.366c-0.68-0.21-1.833-0.237-2.522-0.128L366.212,365.81z"/>
				<g>
					<path style="fill:#FFFFFF;" d="M376.19,365.006c-0.091-0.06-0.182-0.124-0.269-0.191c-0.986-0.745-1.799-1.719-2.942-2.244
						c-1.434-0.657-3.274-0.531-4.647,0.225c-0.712,0.39-1.251,0.941-1.624,1.663c-0.424,0.819-1.172,1.416-1.532,2.281l0.131,0.098
						c1.396,0.625,3.185,0.523,4.774,0.683c1.801,0.178,3.666,0.156,5.454-0.116c0.908-0.138,1.793-0.439,2.677-0.714
						c0.326-0.1,0.898-0.434,1.343-0.513C378.414,365.983,377.173,365.651,376.19,365.006z"/>
				</g>
				<path style="fill:#FFD580;" d="M369.519,370.012c-0.044-0.345-0.225-0.662-0.278-1.013c-0.067-0.44,0.049-0.917-0.028-1.367
					c-0.155-0.893-0.88-1.5-1.658-1.92c1.6,0.536,3.12,0.687,4.513-0.464c-1.342-0.005-2.889-1.688-4.281-1.192
					c1.158-0.66,1.887-2.69,1.995-3.866c-1.284,0.955-3.471,1.255-3.617,3.191c0.249-2.014-1.341-2.398-2.961-3.141
					c0.28,0.844,0.138,2.954,1.276,4.08c-1.554-0.519-3.478,0.13-3.796,0.474c-0.372,0.405-0.433,0.361,0.155,0.768
					c0.463,0.323,1.089,0.672,1.613,0.887c0.747,0.3,1.274,0.2,1.958-0.152c-1.098,0.819-1.045,2.882-0.051,3.757
					c0.475-0.848,1.338-0.89,1.937-1.506c0.575-0.592,0.075-1.668-0.073-2.389C366.896,367.919,367.641,369.319,369.519,370.012z"/>
				<path style="fill:#623B41;" d="M365.445,364.846c-0.649-0.285-1.109,0.467-1.615,0.712c0.609,0.038,0.952-0.251,1.486-0.355
					c-0.324,0.698-0.533,1.13-0.602,1.885c0.499-0.384,0.794-1.048,1.142-1.589c0.249,0.633,0.785,0.957,1.389,1.234
					c-0.201-0.411-0.29-0.981-0.483-1.417c0.459-0.047,0.993-0.104,1.389-0.389c-0.439-0.259-1.009-0.24-1.468-0.33
					c0.264-0.423,1.119-1.023,0.926-1.564c-0.588,0.256-1.148,0.63-1.651,0.997c-0.154-0.529-0.381-0.928-0.841-1.275
					c0.03,0.73-0.213,1.441,0.064,2.115L365.445,364.846z"/>
			</g>
			<g>
				<path style="fill:#FFFFFF;" d="M414.997,368.852c-1.991-1.16-4.219-1.57-5.987-1.699c-2.121-0.155-4.07,1.042-6.179,0.815
					c1.745,1.332,4.108,3.022,6.831,3.304c1.268,0.128,2.298,0.026,3.214-0.588c0.789-0.53,0.983-1.511,2.14-1.824L414.997,368.852z
					"/>
				<path style="fill:#FFFFFF;" d="M414.546,369.059c-0.021-0.656-3.291-1.291-3.904-1.91c-0.838-0.845-1.187-1.762-0.794-2.742
					c0.382-0.949,0.822-1.647,0.321-2.601c1.532,1.218,4.639,1.91,5.421,3.551c0.524,1.095-0.567,2.377-0.959,3.391L414.546,369.059
					z"/>
				<path style="fill:#FFFFFF;" d="M414.182,369.603c0.781-1.022,0.448-3.523,1.075-4.605c0.51-0.877,1.394-1.362,2.569-1.87
					c0.8-0.347,1.665-0.608,2.472-0.948c0.376-0.16,0.877-0.475,1.255-0.526c0.434,1.825,1.078,4.654-1.668,5.806
					c-1.793,0.756-3.935,2.119-5.769,2.119L414.182,369.603z"/>
				<path style="fill:#FFFFFF;" d="M414.538,368.658c-0.592,0.996-3.288,1.663-4.272,2.517c-1.621,1.409-0.714,3.354-1.258,4.918
					c0.464,0.054,1.2-0.282,1.723-0.369c0.864-0.143,1.744-0.137,2.547-0.426c1.682-0.602,3.045-1.161,3.498-2.478
					c0.28-0.813-0.716-3.348-2.352-4.176L414.538,368.658z"/>
				<path style="fill:#FFFFFF;" d="M415.448,369.547c1.001,1.306,0.047,2.814,0.999,4.228c0.492,0.729,1.756,1.218,2.691,1.656
					c1.306,0.613,2.169,1.235,3.213,2.03c0.74-1.024,0.298-2.567,0.076-3.656c-0.274-1.334-0.856-2.262-2.291-3.226
					c-0.665-0.446-1.181-0.746-2.1-0.948c-0.68-0.151-1.832-0.18-2.522-0.116L415.448,369.547z"/>
				<g>
					<path style="fill:#FFFFFF;" d="M425.432,369.103c-0.091-0.042-0.181-0.085-0.267-0.131c-0.983-0.516-1.787-1.184-2.927-1.554
						c-1.431-0.461-3.27-0.393-4.649,0.104c-0.714,0.26-1.258,0.628-1.634,1.115c-0.43,0.551-1.182,0.95-1.548,1.531l0.13,0.068
						c1.391,0.44,3.181,0.389,4.77,0.512c1.799,0.139,3.664,0.146,5.453-0.022c0.908-0.084,1.797-0.279,2.682-0.457
						c0.327-0.064,0.901-0.285,1.346-0.335C427.648,369.789,426.411,369.551,425.432,369.103z"/>
				</g>
				<path style="fill:#FFD580;" d="M418.726,372.432c-0.041-0.234-0.221-0.452-0.271-0.691c-0.064-0.299,0.056-0.619-0.019-0.927
					c-0.148-0.608-0.869-1.028-1.645-1.319c1.597,0.379,3.115,0.497,4.517-0.271c-1.342-0.017-2.878-1.173-4.272-0.854
					c1.162-0.435,1.904-1.804,2.021-2.603c-1.291,0.636-3.48,0.818-3.64,2.13c0.264-1.364-1.323-1.641-2.938-2.163
					c0.275,0.578,0.117,2.008,1.248,2.782c-1.551-0.366-3.479,0.054-3.799,0.285c-0.376,0.271-0.435,0.238,0.151,0.523
					c0.46,0.222,1.083,0.466,1.606,0.618c0.745,0.211,1.272,0.148,1.959-0.083c-1.104,0.545-1.065,1.946-0.078,2.549
					c0.481-0.571,1.344-0.591,1.948-1.002c0.58-0.397,0.086-1.132-0.056-1.624C416.118,370.986,416.852,371.944,418.726,372.432z"/>
				<path style="fill:#623B41;" d="M414.688,368.886c-0.646-0.201-1.111,0.304-1.619,0.465c0.608,0.033,0.953-0.16,1.488-0.224
					c-0.329,0.47-0.541,0.761-0.615,1.274c0.503-0.257,0.801-0.703,1.152-1.069c0.245,0.434,0.778,0.659,1.381,0.853
					c-0.198-0.281-0.283-0.67-0.473-0.967c0.459-0.027,0.993-0.06,1.391-0.25c-0.437-0.18-1.007-0.173-1.465-0.238
					c0.266-0.284,1.125-0.683,0.936-1.051c-0.589,0.168-1.152,0.417-1.657,0.661c-0.15-0.363-0.376-0.635-0.832-0.877
					c0.025,0.497-0.224,0.977,0.049,1.438L414.688,368.886z"/>
			</g>
			<g>
				<path style="fill:#FFFFFF;" d="M347.679,365.58c-2.093,0.012-3.751,0.82-4.914,1.639c-1.395,0.981-1.649,3.079-3.094,3.99
					c2.078,0.269,4.803,0.533,6.659-0.652c0.865-0.552,1.405-1.19,1.483-2.221c0.067-0.892-0.571-1.872-0.114-2.761L347.679,365.58z
					"/>
				<path style="fill:#FFFFFF;" d="M347.567,366.002c-0.518-0.576-2.976,0.584-3.822,0.353c-1.156-0.311-2.072-0.945-2.59-2.029
					c-0.502-1.051-0.775-1.908-1.81-2.493c1.861,0.281,4.264-0.744,5.999,0.309c1.16,0.703,1.489,2.424,2.037,3.538L347.567,366.002
					z"/>
				<path style="fill:#FFFFFF;" d="M347.766,366.68c-0.316-1.328-2.444-3.384-2.899-4.683c-0.369-1.054-0.21-1.953,0.106-3.026
					c0.215-0.731,0.534-1.422,0.759-2.152c0.103-0.342,0.161-0.887,0.35-1.132c1.666,1.4,4.235,3.589,3.47,6.069
					c-0.5,1.62-0.74,3.968-1.843,4.936L347.766,366.68z"/>
				<path style="fill:#FFFFFF;" d="M347.254,365.648c0.411,1.201-0.699,3.22-0.635,4.502c0.109,2.114,2.152,3.373,3.03,5.059
					c0.323-0.196,0.507-0.886,0.754-1.242c0.41-0.583,0.945-1.043,1.206-1.724c0.549-1.427,0.939-2.645,0.198-4.061
					c-0.457-0.872-3.012-2.616-4.632-2.49L347.254,365.648z"/>
				<path style="fill:#FFFFFF;" d="M348.488,365.963c1.607,0.636,2.195,2.488,3.858,3.249c0.858,0.393,1.995,0.161,2.897,0.058
					c1.257-0.142,2.255-0.042,3.496,0.117c-0.341-1.306-1.798-2.451-2.77-3.306c-1.191-1.049-2.256-1.57-3.864-1.674
					c-0.744-0.046-1.286-0.042-1.995,0.263c-0.524,0.224-1.243,0.804-1.605,1.228L348.488,365.963z"/>
				<g>
					<path style="fill:#FFFFFF;" d="M354.157,360.296c-0.088,0.01-0.175,0.019-0.264,0.022c-0.987,0.057-1.987-0.116-2.958,0.157
						c-1.216,0.342-2.271,1.374-2.72,2.546c-0.23,0.609-0.275,1.224-0.127,1.857c0.168,0.721,0.02,1.473,0.248,2.187l0.13-0.009
						c1.177-0.342,2.215-1.332,3.267-2.06c1.192-0.824,2.318-1.805,3.267-2.898c0.482-0.553,0.868-1.197,1.264-1.822
						c0.146-0.234,0.322-0.732,0.552-1.012C356.02,359.738,355.091,360.18,354.157,360.296z"/>
				</g>
				<path style="fill:#FFD580;" d="M352.684,366.808c-0.205-0.185-0.482-0.286-0.696-0.473c-0.269-0.235-0.444-0.584-0.725-0.819
					c-0.558-0.465-1.313-0.458-2.006-0.313c1.253-0.502,2.259-1.197,2.512-2.623c-0.821,0.693-2.637,0.471-3.23,1.492
					c0.365-1.002-0.243-2.62-0.788-3.394c-0.288,1.25-1.466,2.567-0.55,3.824c-0.893-1.358-2.063-0.768-3.435-0.381
					c0.609,0.371,1.616,1.731,2.893,1.826c-1.217,0.492-2.055,1.884-2.07,2.258c-0.017,0.441-0.077,0.445,0.494,0.389
					c0.448-0.044,1.012-0.153,1.444-0.296c0.612-0.203,0.882-0.538,1.116-1.107c-0.245,1.069,0.858,2.3,1.918,2.319
					c-0.149-0.763,0.354-1.237,0.4-1.925c0.044-0.659-0.819-1.055-1.284-1.42C349.997,366.892,351.177,367.362,352.684,366.808z"/>
				<path style="fill:#623B41;" d="M347.52,365.772c-0.545,0.162-0.434,0.86-0.616,1.271c0.392-0.294,0.45-0.647,0.722-0.986
					c0.164,0.593,0.259,0.964,0.61,1.463c0.105-0.495-0.06-1.053-0.128-1.563c0.481,0.256,0.975,0.178,1.488,0.032
					c-0.337-0.147-0.686-0.447-1.029-0.613c0.255-0.269,0.551-0.579,0.644-0.959c-0.402,0.07-0.739,0.377-1.066,0.56
					c-0.058-0.393,0.153-1.205-0.245-1.434c-0.226,0.462-0.374,0.981-0.49,1.466c-0.369-0.243-0.715-0.369-1.175-0.345
					c0.398,0.432,0.618,0.991,1.135,1.258L347.52,365.772z"/>
			</g>
			<g>
				<path style="fill:#FFFFFF;" d="M303.726,365.544c-1.535,0.009-2.75,0.602-3.603,1.203c-1.022,0.719-1.208,2.256-2.268,2.926
					c1.523,0.195,3.522,0.389,4.882-0.481c0.634-0.405,1.03-0.871,1.086-1.627c0.049-0.655-0.419-1.373-0.083-2.024L303.726,365.544
					z"/>
				<path style="fill:#FFFFFF;" d="M303.645,365.853c-0.38-0.421-2.181,0.43-2.802,0.261c-0.848-0.228-1.519-0.694-1.899-1.488
					c-0.369-0.772-0.568-1.398-1.328-1.829c1.365,0.205,3.127-0.544,4.398,0.227c0.851,0.514,1.092,1.775,1.492,2.593
					L303.645,365.853z"/>
				<path style="fill:#FFFFFF;" d="M303.79,366.351c-0.232-0.974-1.792-2.482-2.125-3.432c-0.271-0.773-0.154-1.432,0.077-2.219
					c0.158-0.536,0.392-1.043,0.557-1.578c0.076-0.251,0.118-0.65,0.256-0.83c1.223,1.028,3.105,2.63,2.544,4.45
					c-0.366,1.186-0.542,2.908-1.351,3.617L303.79,366.351z"/>
				<path style="fill:#FFFFFF;" d="M303.415,365.594c0.302,0.88-0.513,2.362-0.466,3.3c0.08,1.551,1.578,2.475,2.222,3.711
					c0.236-0.146,0.372-0.651,0.553-0.91c0.301-0.427,0.693-0.765,0.883-1.264c0.403-1.046,0.689-1.94,0.145-2.978
					c-0.336-0.64-2.208-1.917-3.396-1.825L303.415,365.594z"/>
				<path style="fill:#FFFFFF;" d="M304.319,365.825c1.178,0.468,1.609,1.825,2.828,2.385c0.629,0.285,1.463,0.116,2.124,0.042
					c0.921-0.105,1.653-0.032,2.563,0.085c-0.25-0.958-1.318-1.799-2.03-2.424c-0.874-0.767-1.655-1.15-2.833-1.226
					c-0.546-0.035-0.944-0.035-1.463,0.19c-0.384,0.165-0.911,0.591-1.177,0.902L304.319,365.825z"/>
				<g>
					<path style="fill:#FFFFFF;" d="M308.475,361.671c-0.064,0.006-0.129,0.013-0.193,0.016c-0.724,0.042-1.458-0.084-2.17,0.115
						c-0.892,0.253-1.665,1.007-1.993,1.867c-0.169,0.446-0.201,0.898-0.094,1.361c0.124,0.53,0.016,1.081,0.182,1.603l0.095-0.006
						c0.863-0.25,1.624-0.976,2.396-1.51c0.874-0.603,1.7-1.323,2.395-2.125c0.353-0.406,0.636-0.878,0.927-1.337
						c0.106-0.171,0.236-0.535,0.405-0.739C309.841,361.262,309.16,361.587,308.475,361.671z"/>
				</g>
				<path style="fill:#FFD580;" d="M307.395,366.446c-0.15-0.137-0.353-0.211-0.51-0.347c-0.196-0.172-0.325-0.43-0.531-0.602
					c-0.409-0.34-0.963-0.336-1.471-0.227c0.918-0.369,1.656-0.88,1.841-1.924c-0.602,0.508-1.933,0.345-2.368,1.094
					c0.267-0.735-0.178-1.92-0.578-2.488c-0.211,0.918-1.074,1.883-0.403,2.805c-0.654-0.996-1.512-0.562-2.519-0.28
					c0.446,0.272,1.184,1.269,2.121,1.34c-0.891,0.358-1.506,1.379-1.517,1.654c-0.013,0.324-0.057,0.327,0.362,0.285
					c0.329-0.032,0.742-0.114,1.058-0.219c0.448-0.146,0.646-0.394,0.819-0.812c-0.18,0.786,0.628,1.688,1.405,1.703
					c-0.109-0.562,0.261-0.907,0.293-1.413c0.033-0.48-0.599-0.773-0.94-1.039C305.426,366.506,306.291,366.85,307.395,366.446z"/>
				<path style="fill:#623B41;" d="M303.609,365.684c-0.399,0.12-0.318,0.631-0.452,0.934c0.288-0.216,0.331-0.476,0.53-0.725
					c0.12,0.437,0.19,0.708,0.448,1.074c0.077-0.362-0.044-0.77-0.094-1.145c0.351,0.188,0.714,0.13,1.09,0.023
					c-0.247-0.106-0.502-0.329-0.755-0.451c0.188-0.194,0.405-0.424,0.473-0.702c-0.294,0.053-0.542,0.277-0.781,0.411
					c-0.043-0.289,0.111-0.883-0.18-1.052c-0.165,0.336-0.275,0.719-0.359,1.074c-0.27-0.177-0.525-0.271-0.862-0.251
					c0.292,0.316,0.453,0.725,0.832,0.922L303.609,365.684z"/>
			</g>
			<g>
				<path style="fill:#EFDBCC;" d="M493.588,353.898c0,0-0.308,5.723-2.976,12.365c-3.582,8.946-11.42,19.566-28.489,20.126
					c-0.28,0.027-0.555,0.021-0.834,0.021c-0.274,0-0.547,0.006-0.834,0.006c-20.478-0.702-27.669-15.849-30.164-25.221
					c-1.127-4.243-1.294-7.297-1.294-7.297l31.458-0.794c0-0.041,0.834-0.021,0.834-0.021l0.834-0.02
					C462.123,353.104,493.588,353.898,493.588,353.898z"/>
				<path style="opacity:0.4;fill:#C9A287;" d="M493.588,353.898c0,0-0.308,5.723-2.976,12.365c-0.273,0.082-0.566,0.147-0.874,0.2
					c-6.437,0.988-7.111-4.314-13.316-3.7c-6.209,0.466-5.956,5.802-12.446,5.943c-6.484-0.006-6.344-5.342-12.554-5.684
					c-6.203-0.479-6.764,4.831-13.208,3.983c-4.717-0.728-5.449-3.755-7.924-5.809c-1.127-4.243-1.294-7.297-1.294-7.297
					l31.458-0.794c0-0.041,0.834-0.021,0.834-0.021l0.834-0.02C462.123,353.104,493.588,353.898,493.588,353.898z"/>
				<path style="fill:#FFF3EB;" d="M493.698,353.898c0,2.301-14.484,4.167-32.352,4.167c-17.868,0-32.351-1.867-32.351-4.167
					c0-2.304,14.484-4.17,32.351-4.17C479.214,349.729,493.698,351.594,493.698,353.898z"/>
				<path style="fill:#C9A287;" d="M461.346,356.065c-13.733,0-23.768-1.081-28.257-2.166c4.489-1.086,14.524-2.169,28.257-2.169
					c13.733,0,23.768,1.083,28.258,2.169C485.115,354.983,475.079,356.065,461.346,356.065z"/>
				<g>
					<path style="fill:#FFD580;" d="M461.699,354.506c-6.964-0.808-0.055-14.23,0.512-17.236c1.171,1.762,1.112,4.187,1.232,6.268
						c0-0.94,0.07-1.804,0.108-2.733c1.446,2.372,1.782,5.66,1.954,8.514c0.201,3.341-1.388,4.734-4.021,5.199L461.699,354.506z"/>
					<path style="fill:#ED8077;" d="M461.744,353.895c4.393-0.132,0.798-8.884,0.605-10.792c-0.826,1.035-0.919,2.552-1.105,3.847
						c0.05-0.586,0.052-1.13,0.079-1.711c-1.031,1.402-1.417,3.438-1.677,5.21c-0.305,2.077,0.612,3.033,2.232,3.464
						L461.744,353.895z"/>
					<path style="fill:#623B41;" d="M462.256,356.063c-0.078-0.388-0.181-0.766-0.189-1.217c-0.004-0.178-0.015-1.905-0.518-1.196
						c-0.182,0.256-0.072,0.547-0.113,0.839c-0.017,0.127-0.216,1.574-0.103,1.574H462.256z"/>
				</g>
			</g>
			<g>
				<path style="fill:#EFDBCC;" d="M213.492,355.622c0,0-0.307,5.724-2.975,12.367c-3.582,8.945-11.42,19.565-28.489,20.126
					c-0.28,0.025-0.554,0.017-0.835,0.017c-0.274,0-0.547,0.008-0.833,0.008c-20.479-0.699-27.669-15.85-30.165-25.221
					c-1.127-4.241-1.294-7.297-1.294-7.297l31.459-0.795c0-0.039,0.833-0.018,0.833-0.018l0.835-0.021
					C182.027,354.828,213.492,355.622,213.492,355.622z"/>
				<path style="opacity:0.4;fill:#C9A287;" d="M213.492,355.622c0,0-0.307,5.724-2.975,12.367
					c-0.274,0.079-0.566,0.147-0.874,0.202c-6.437,0.986-7.111-4.318-13.316-3.703c-6.209,0.467-5.956,5.803-12.446,5.943
					c-6.484-0.006-6.344-5.344-12.554-5.683c-6.203-0.479-6.764,4.83-13.208,3.983c-4.717-0.728-5.449-3.757-7.925-5.812
					c-1.127-4.241-1.294-7.297-1.294-7.297l31.459-0.795c0-0.039,0.833-0.018,0.833-0.018l0.835-0.021
					C182.027,354.828,213.492,355.622,213.492,355.622z"/>
				<path style="fill:#FFF3EB;" d="M213.602,355.622c0,2.302-14.484,4.17-32.351,4.17c-17.868,0-32.352-1.868-32.352-4.17
					c0-2.303,14.484-4.17,32.352-4.17C199.119,351.452,213.602,353.319,213.602,355.622z"/>
				<path style="fill:#C9A287;" d="M181.251,357.79c-13.734,0-23.769-1.085-28.258-2.168c4.489-1.086,14.524-2.168,28.258-2.168
					c13.732,0,23.768,1.082,28.257,2.168C205.02,356.706,194.984,357.79,181.251,357.79z"/>
				<g>
					<path style="fill:#FFD580;" d="M181.602,356.229c-6.963-0.806-0.055-14.228,0.512-17.235c1.171,1.763,1.112,4.19,1.232,6.269
						c0-0.939,0.07-1.803,0.108-2.732c1.446,2.373,1.782,5.66,1.954,8.511c0.201,3.341-1.387,4.736-4.021,5.201L181.602,356.229z"/>
					<path style="fill:#ED8077;" d="M181.647,355.618c4.392-0.131,0.798-8.883,0.605-10.792c-0.826,1.038-0.919,2.556-1.105,3.849
						c0.051-0.587,0.052-1.129,0.079-1.712c-1.03,1.404-1.416,3.44-1.677,5.211c-0.306,2.076,0.612,3.032,2.232,3.464
						L181.647,355.618z"/>
					<path style="fill:#623B41;" d="M182.16,357.788c-0.077-0.389-0.181-0.767-0.19-1.216c-0.004-0.179-0.015-1.906-0.518-1.198
						c-0.182,0.258-0.072,0.549-0.112,0.841c-0.017,0.126-0.216,1.573-0.103,1.573H182.16z"/>
				</g>
			</g>
		</g>
		<g>
			<path style="fill:#CA9B6A;" d="M273.332,374.169c-1.639,0.559-5.262-2.124-7.306-2.382c-2.472-0.31-4.929,0.094-7.315,0.73
				c-2.469,0.655-4.847,1.609-7.29,2.345c-1.245,0.376-6.332,2.279-7.438,1.394c5.496,4.408,10.995,8.617,18.651,6.491
				c3.609-1.003,10.261-4.628,10.894-8.812L273.332,374.169z"/>
			<path style="fill:#CA9B6A;" d="M275.207,369.747c-2.121,1.568-4.195,0.048-6.235-0.516c-2.56-0.709-5.333-0.187-7.947-0.546
				c-4.414-0.607-8.264-3.533-11.858-6.064c5.134-0.917,10.132-3.912,15.426-3.07c6.634,1.054,7.667,4.875,10.355,10.036
				L275.207,369.747z"/>
			<g>
				<path style="fill:#CA9B6A;" d="M301.082,375.754c-3.812,1.547-8.112,2.427-12.193,2.807c-2.134,0.2-4.526,0.361-6.605-0.287
					c-0.824-0.256-1.496-0.583-2.198-1.08c-0.716-0.507-1.579-2.457-1.924-2.633c3.297,1.679,7.225-1.883,10.494-2.121
					c2.346-0.171,4.726,0.277,6.962,0.962C296.443,373.657,300.526,375.982,301.082,375.754z"/>
				<path style="fill:#CA9B6A;" d="M292.349,389.053c-3.871-1.39-7.661-3.605-10.953-6.048c-1.722-1.274-3.613-2.75-4.728-4.62
					c-0.442-0.741-0.725-1.435-0.915-2.273c-0.195-0.852,0.464-2.882,0.324-3.243c1.336,3.452,6.638,3.42,9.231,5.425
					c1.861,1.437,3.336,3.361,4.542,5.363C290.295,384.397,291.784,388.851,292.349,389.053z"/>
			</g>
			<g>
				<path style="fill:#FFFFFF;" d="M277.12,371.377c-1.978-1.182-4.203-1.614-5.969-1.757c-2.12-0.175-4.08,1.003-6.187,0.756
					c1.732,1.349,4.08,3.06,6.799,3.367c1.267,0.145,2.296,0.052,3.219-0.555c0.794-0.523,0.998-1.504,2.158-1.804L277.12,371.377z"
					/>
				<path style="fill:#FFFFFF;" d="M276.668,371.579c-0.015-0.655-3.278-1.322-3.886-1.947c-0.831-0.854-1.171-1.772-0.768-2.749
					c0.391-0.945,0.837-1.639,0.346-2.597c1.518,1.234,4.621,1.953,5.387,3.602c0.512,1.102-0.591,2.372-0.993,3.384
					L276.668,371.579z"/>
				<path style="fill:#FFFFFF;" d="M276.299,372.12c0.79-1.016,0.482-3.52,1.119-4.594c0.518-0.872,1.407-1.349,2.587-1.847
					c0.803-0.339,1.67-0.592,2.48-0.923c0.377-0.157,0.883-0.467,1.26-0.516c0.416,1.83,1.033,4.667-1.724,5.795
					c-1.799,0.735-3.954,2.076-5.788,2.058L276.299,372.12z"/>
				<path style="fill:#FFFFFF;" d="M276.665,371.178c-0.601,0.99-3.305,1.631-4.296,2.475c-1.633,1.392-0.747,3.346-1.306,4.907
					c0.465,0.059,1.203-0.273,1.728-0.355c0.864-0.133,1.743-0.12,2.549-0.401c1.688-0.585,3.057-1.132,3.522-2.444
					c0.287-0.809-0.683-3.355-2.312-4.198L276.665,371.178z"/>
				<path style="fill:#FFFFFF;" d="M277.565,372.078c0.988,1.315,0.02,2.813,0.958,4.236c0.485,0.733,1.744,1.234,2.675,1.68
					c1.299,0.624,2.157,1.254,3.193,2.062c0.751-1.018,0.323-2.566,0.111-3.657c-0.26-1.336-0.833-2.27-2.259-3.247
					c-0.66-0.451-1.173-0.758-2.092-0.969c-0.677-0.158-1.829-0.198-2.518-0.138L277.565,372.078z"/>
				<g>
					<path style="fill:#FFFFFF;" d="M287.554,371.727c-0.091-0.042-0.18-0.088-0.267-0.133c-0.977-0.525-1.776-1.202-2.911-1.582
						c-1.425-0.476-3.267-0.425-4.649,0.058c-0.717,0.253-1.265,0.615-1.646,1.097c-0.434,0.55-1.191,0.94-1.562,1.518l0.129,0.069
						c1.386,0.451,3.177,0.418,4.764,0.557c1.798,0.157,3.663,0.179,5.454,0.028c0.909-0.074,1.799-0.261,2.686-0.429
						c0.328-0.062,0.904-0.277,1.35-0.325C289.763,372.435,288.527,372.185,287.554,371.727z"/>
				</g>
				<path style="fill:#FFD580;" d="M280.817,374.992c-0.041-0.234-0.218-0.456-0.264-0.692c-0.062-0.3,0.061-0.621-0.011-0.929
					c-0.142-0.61-0.859-1.034-1.632-1.334c1.593,0.394,3.11,0.528,4.519-0.227c-1.342-0.029-2.866-1.2-4.264-0.893
					c1.166-0.425,1.923-1.788,2.045-2.583c-1.297,0.622-3.486,0.782-3.659,2.094c0.277-1.363-1.306-1.654-2.916-2.192
					c0.269,0.581,0.098,2.009,1.221,2.795c-1.547-0.383-3.48,0.02-3.802,0.247c-0.378,0.268-0.438,0.236,0.145,0.526
					c0.458,0.226,1.079,0.474,1.6,0.631c0.743,0.22,1.271,0.162,1.96-0.064c-1.109,0.534-1.083,1.936-0.101,2.549
					c0.485-0.566,1.349-0.577,1.956-0.984c0.584-0.392,0.098-1.13-0.04-1.623C278.221,373.519,278.947,374.484,280.817,374.992z"/>
				<path style="fill:#623B41;" d="M276.812,371.408c-0.644-0.208-1.114,0.293-1.623,0.449c0.608,0.039,0.954-0.15,1.489-0.209
					c-0.334,0.465-0.549,0.755-0.628,1.268c0.505-0.252,0.807-0.697,1.162-1.058c0.241,0.435,0.772,0.666,1.373,0.865
					c-0.195-0.284-0.276-0.671-0.463-0.971c0.46-0.022,0.993-0.052,1.393-0.237c-0.436-0.184-1.006-0.18-1.462-0.252
					c0.269-0.282,1.132-0.673,0.945-1.042c-0.59,0.162-1.156,0.404-1.663,0.644c-0.147-0.363-0.369-0.638-0.823-0.883
					c0.021,0.498-0.233,0.975,0.036,1.435L276.812,371.408z"/>
			</g>
		</g>
	</g>
</g>
</svg>
